/* XPM */
static char * arrow_refresh_xpm[] = {
"24 24 198 2",
"  	c None",
". 	c #4D8E00",
"+ 	c #4F8C00",
"@ 	c #559208",
"# 	c #8DB11D",
"$ 	c #418300",
"% 	c #408400",
"& 	c #398200",
"* 	c #388100",
"= 	c #398100",
"- 	c #47890C",
"; 	c #DAE679",
"> 	c #7EAB04",
", 	c #3B7F00",
"' 	c #4D8D06",
") 	c #639B17",
"! 	c #ACC85F",
"~ 	c #E1E692",
"{ 	c #E2E793",
"] 	c #DDE76F",
"^ 	c #D7E54B",
"/ 	c #D8E54D",
"( 	c #D8E44C",
"_ 	c #D5E351",
": 	c #AFCE3C",
"< 	c #C2DA51",
"[ 	c #7FAE07",
"} 	c #438400",
"| 	c #468700",
"1 	c #619B19",
"2 	c #B4CF6D",
"3 	c #D0E170",
"4 	c #B5D03A",
"5 	c #A4C51A",
"6 	c #9CBF05",
"7 	c #9CC101",
"8 	c #9BC100",
"9 	c #97C400",
"0 	c #96C300",
"a 	c #B9D83B",
"b 	c #71A609",
"c 	c #468300",
"d 	c #5F9918",
"e 	c #D2E58B",
"f 	c #B0D32D",
"g 	c #9AC505",
"h 	c #98C400",
"i 	c #98C500",
"j 	c #99C500",
"k 	c #99C900",
"l 	c #9AC900",
"m 	c #9ACA00",
"n 	c #9ACB00",
"o 	c #9FD001",
"p 	c #639B03",
"q 	c #498A00",
"r 	c #C7E66F",
"s 	c #ACD827",
"t 	c #96CB00",
"u 	c #9ACE02",
"v 	c #A4D413",
"w 	c #A9D623",
"x 	c #A6D426",
"y 	c #9DD314",
"z 	c #96CF00",
"A 	c #97CF00",
"B 	c #96CE00",
"C 	c #9DD300",
"D 	c #A0D400",
"E 	c #6CA500",
"F 	c #3D8000",
"G 	c #9DCA40",
"H 	c #B5E336",
"I 	c #95D300",
"J 	c #9BD605",
"K 	c #B5E337",
"L 	c #92C62B",
"M 	c #599009",
"N 	c #3D8004",
"O 	c #3B7E00",
"P 	c #3C7E00",
"Q 	c #4B8C00",
"R 	c #A8E200",
"S 	c #639C00",
"T 	c #5A950C",
"U 	c #B1E43B",
"V 	c #96DA00",
"W 	c #97DA00",
"X 	c #BFEC53",
"Y 	c #92C535",
"Z 	c #418000",
"` 	c #539300",
" .	c #6BA700",
"..	c #71AE10",
"+.	c #A7E413",
"@.	c #9ADD00",
"#.	c #AFE62F",
"$.	c #C2E968",
"%.	c #4C8B00",
"&.	c #5F9D04",
"*.	c #74B501",
"=.	c #71B200",
"-.	c #83BA29",
";.	c #6BA51B",
">.	c #438800",
",.	c #3B8300",
"'.	c #448700",
").	c #3D7E00",
"!.	c #A4C147",
"~.	c #E1E588",
"{.	c #D5DE75",
"].	c #DAE178",
"^.	c #8EB43A",
"/.	c #578F00",
"(.	c #4F8E00",
"_.	c #669D19",
":.	c #D5E183",
"<.	c #A0BD0F",
"[.	c #96B600",
"}.	c #99B700",
"|.	c #5C9200",
"1.	c #458600",
"2.	c #ADC539",
"3.	c #56940D",
"4.	c #3F8200",
"5.	c #669D1A",
"6.	c #CADD7E",
"7.	c #ADC92B",
"8.	c #98BB00",
"9.	c #9CBF00",
"0.	c #96BB00",
"a.	c #478900",
"b.	c #458500",
"c.	c #96BA16",
"d.	c #D9E67A",
"e.	c #5E981A",
"f.	c #54920A",
"g.	c #54930A",
"h.	c #54920B",
"i.	c #55920F",
"j.	c #6EA320",
"k.	c #98BF3B",
"l.	c #CEE175",
"m.	c #ADCC28",
"n.	c #97BE00",
"o.	c #A3C600",
"p.	c #669F00",
"q.	c #508D00",
"r.	c #9FC32F",
"s.	c #B1D02E",
"t.	c #A4C721",
"u.	c #BDD930",
"v.	c #C0DA2E",
"w.	c #C0DA31",
"x.	c #BFD649",
"y.	c #BCD845",
"z.	c #B5D43B",
"A.	c #A0C60D",
"B.	c #98C200",
"C.	c #9CC500",
"D.	c #A2C900",
"E.	c #78AC00",
"F.	c #3F7E00",
"G.	c #7CAF15",
"H.	c #AAD018",
"I.	c #9AC700",
"J.	c #9BC700",
"K.	c #98C600",
"L.	c #9DC900",
"M.	c #A3CE00",
"N.	c #78AE00",
"O.	c #498900",
"P.	c #599200",
"Q.	c #98CB00",
"R.	c #9CCD00",
"S.	c #9CD000",
"T.	c #9DD100",
"U.	c #9DD200",
"V.	c #9DCE00",
"W.	c #9ECE00",
"X.	c #9BCC00",
"Y.	c #95C800",
"Z.	c #66A000",
"`.	c #407F00",
" +	c #558F00",
".+	c #9AD000",
"++	c #A3D900",
"@+	c #76B300",
"#+	c #72AF00",
"$+	c #72B000",
"%+	c #72AD00",
"&+	c #72AC00",
"*+	c #5D9700",
"=+	c #4C8600",
"-+	c #A3E000",
";+	c #529100",
">+	c #5E9A00",
",+	c #529200",
"                              . +               ",
"                              @ # $             ",
"              % & * * = = = = - ; > ,           ",
"          ' ) ! ~ { ] ^ / / ( _ : < [ }         ",
"      | 1 2 3 4 5 6 7 8 8 8 8 8 9 0 a b         ",
"    c d e f g h i j k l l l l l m n o p         ",
"    q r s t u v w x y z A A A B C D E           ",
"  F G H I J K L M   N O P P   Q R S             ",
"  T U V W X Y Z               `  .              ",
"  ..+.@.#.$.O                 %.                ",
"  &.*.=.-.;.                                    ",
"                                    >.& & ,.'.  ",
"                                  ).!.~.{.].^.  ",
"              /.(.                _.:.<.[.}.|.  ",
"            1.2.3.            4.5.6.7.8.9.0.a.  ",
"          b.c.d.e.f.g.f.h.i.j.k.l.m.n.8 o.p.    ",
"        q.r.s.t.u.v.v.v.w.x.y.z.A.B.C.D.E.F.    ",
"        G.H.I.J.K.K.K.K.K.K.I.I.J.L.M.N.O.      ",
"        P.Q.R.n S.T.T.T.T.U.V.W.X.Y.Z.`.        ",
"           +.+++@+#+$+$+$+$+%+&+*+|             ",
"            =+-+;+                              ",
"              >+,+                              ",
"                %.                              ",
"                                                "};
