/* XPM */
static char * compile_xpm[] = {
"24 24 123 2",
"  	c None",
". 	c #8EB549",
"+ 	c #A2B912",
"@ 	c #9BB500",
"# 	c #9CB500",
"$ 	c #8DB546",
"% 	c #A3BC11",
"& 	c #9BB800",
"* 	c #9CB800",
"= 	c #3F3F40",
"- 	c #3B3B3B",
"; 	c #424244",
"> 	c #3D3D3E",
", 	c #434344",
"' 	c #404041",
") 	c #8CB443",
"! 	c #A3BD11",
"~ 	c #9BB900",
"{ 	c #9CB900",
"] 	c #353536",
"^ 	c #2E2E2F",
"/ 	c #363637",
"( 	c #323233",
"_ 	c #313132",
": 	c #8BB440",
"< 	c #A2BF10",
"[ 	c #9BBB00",
"} 	c #9CBB00",
"| 	c #2A2A2B",
"1 	c #262627",
"2 	c #8AB43C",
"3 	c #A1C00F",
"4 	c #9ABD00",
"5 	c #9BBC00",
"6 	c #1E1E1E",
"7 	c #1B1B1C",
"8 	c #1B1B1B",
"9 	c #88B439",
"0 	c #A1C30E",
"a 	c #9ABF00",
"b 	c #9BBF00",
"c 	c #101011",
"d 	c #111111",
"e 	c #121212",
"f 	c #87B336",
"g 	c #A0C40D",
"h 	c #9BC000",
"i 	c #050505",
"j 	c #040404",
"k 	c #86B333",
"l 	c #A0C50D",
"m 	c #9BC200",
"n 	c #85B330",
"o 	c #A0C70C",
"p 	c #9BC400",
"q 	c #4C4C4E",
"r 	c #4B4B4D",
"s 	c #84B32D",
"t 	c #A1C90B",
"u 	c #9BC500",
"v 	c #3E3E3F",
"w 	c #3E3E40",
"x 	c #82B329",
"y 	c #A0CB0A",
"z 	c #9BC700",
"A 	c #81B327",
"B 	c #9FCC0A",
"C 	c #9AC900",
"D 	c #242425",
"E 	c #80B323",
"F 	c #9FCE09",
"G 	c #9ACA00",
"H 	c #181818",
"I 	c #7FB220",
"J 	c #9FD008",
"K 	c #9ACD00",
"L 	c #020105",
"M 	c #080808",
"N 	c #090909",
"O 	c #7DB21D",
"P 	c #9FD107",
"Q 	c #9ACE00",
"R 	c #529103",
"S 	c #549305",
"T 	c #509005",
"U 	c #80B51C",
"V 	c #9ED306",
"W 	c #9AD000",
"X 	c #539305",
"Y 	c #539403",
"Z 	c #659D0D",
"` 	c #BCE82B",
" .	c #ACDE15",
"..	c #A6D913",
"+.	c #9AD201",
"@.	c #9AD200",
"#.	c #BCE92B",
"$.	c #66A00D",
"%.	c #404142",
"&.	c #3C3C3D",
"*.	c #444445",
"=.	c #414142",
"-.	c #498902",
";.	c #B9E921",
">.	c #98D300",
",.	c #9AD300",
"'.	c #353437",
").	c #A9DF13",
"!.	c #9BD700",
"~.	c #9AD500",
"{.	c #579207",
"].	c #A5E00C",
"^.	c #99D700",
"/.	c #99D600",
"(.	c #4A8902",
"_.	c #B0EC0B",
":.	c #99DA00",
"<.	c #101010",
"[.	c #4A8900",
"}.	c #A7E706",
"|.	c #070707",
"1.	c #060606",
"2.	c #346900",
"        . + @ # @ + .                           ",
"        $ % & * & % $           = - ;   > , '   ",
"        ) ! ~ { ~ ! )         ] ^   / (   / _   ",
"        : < [ } [ < :         | 1   | 1   | 1   ",
"        2 3 4 5 4 3 2         6 7   6 8   6 8   ",
"        9 0 a b a 0 9         c d   d     e d   ",
"        f g h h h g f           i i i   j j i   ",
"        k l m m m l k                           ",
"        n o p p p o n         q r       r r     ",
"        s t u u u t s           =     v     w   ",
"        x y z z z y x           (     (     (   ",
"        A B C C C B A           D     D     D   ",
"        E F G G G F E           H     H     H   ",
"        I J K K K J I         L M     N j j N   ",
"        O P Q Q Q P O                           ",
"  R S T U V W W W V U T X Y                     ",
"  Z `  ...+.@.@.@.+... .#.$.    %.&.;   = *.=.  ",
"    -.;.>.,.,.,.,.,.>.;.-.    '.^   / (   / _   ",
"      -.).!.~.~.~.!.).-.      | 1   | 1   | 1   ",
"        {.].^./.^.].{.        6 7   6 8   6 8   ",
"          (._.:._.(.          c d   d     e <.  ",
"            [.}.[.              |.|.1.  1.i 1.  ",
"              2.                                ",
"                                                "};
