/* XPM */
static char * connect_xpm[] = {
"24 24 182 2",
"  	c None",
". 	c #A4A7A9",
"+ 	c #9C9FA1",
"@ 	c #BDBEC1",
"# 	c #8E8F93",
"$ 	c #939495",
"% 	c #8D9092",
"& 	c #AEB0B2",
"* 	c #92BCDA",
"= 	c #94BDDC",
"- 	c #94BFDE",
"; 	c #759BB8",
"> 	c #E3DDDA",
", 	c #CACACC",
"' 	c #878A8D",
") 	c #3478B0",
"! 	c #88B6D6",
"~ 	c #9DD7FF",
"{ 	c #97D1FF",
"] 	c #98D2FF",
"^ 	c #97D4FF",
"/ 	c #3F83BA",
"( 	c #C7BAB0",
"_ 	c #919394",
": 	c #387BB2",
"< 	c #CEF1FF",
"[ 	c #6AA2CF",
"} 	c #ADD0EB",
"| 	c #8ACAFC",
"1 	c #85C5F8",
"2 	c #87C6F8",
"3 	c #88C6F8",
"4 	c #88C6F9",
"5 	c #95D4FF",
"6 	c #3F7FB3",
"7 	c #6AAFE1",
"8 	c #A1DDFF",
"9 	c #559BD4",
"0 	c #80B1D6",
"a 	c #8ECDFD",
"b 	c #7CC1F4",
"c 	c #7EC1F5",
"d 	c #7DC1F4",
"e 	c #78BFF5",
"f 	c #B6DFFB",
"g 	c #2774B4",
"h 	c #377AB2",
"i 	c #90979E",
"j 	c #60AAE3",
"k 	c #90CEFF",
"l 	c #68AEE4",
"m 	c #74AAD4",
"n 	c #76BEF4",
"o 	c #73BBF0",
"p 	c #73BBF1",
"q 	c #6EB8F0",
"r 	c #9ACDF2",
"s 	c #3275AC",
"t 	c #3479B0",
"u 	c #CEF2FF",
"v 	c #77B1DD",
"w 	c #8F979E",
"x 	c #C8C2BE",
"y 	c #748DA2",
"z 	c #75B9EC",
"A 	c #87CAFD",
"B 	c #539AD1",
"C 	c #81BBE5",
"D 	c #6BB7F0",
"E 	c #69B5EC",
"F 	c #66B4EC",
"G 	c #88C3EE",
"H 	c #3778AD",
"I 	c #84B4D5",
"J 	c #5FA3D6",
"K 	c #A4DCFF",
"L 	c #63A4D8",
"M 	c #738EA4",
"N 	c #957E6D",
"O 	c #66A8DD",
"P 	c #82CAFF",
"Q 	c #4E97CF",
"R 	c #62A1D1",
"S 	c #65B6EE",
"T 	c #5CAEE8",
"U 	c #74B8E9",
"V 	c #3C7AAF",
"W 	c #7AAED5",
"X 	c #9CD5FF",
"Y 	c #ACCFEA",
"Z 	c #5DA1D6",
"` 	c #8CCCFE",
" .	c #76ADD8",
"..	c #59A3DC",
"+.	c #73BEF6",
"@.	c #55A3DA",
"#.	c #5197CD",
"$.	c #55ACE8",
"%.	c #5EAFE7",
"&.	c #427EB1",
"*.	c #75ACD8",
"=.	c #8CCBFD",
"-.	c #8CCCFD",
";.	c #7FB0D6",
">.	c #76B6EA",
",.	c #83C8FB",
"'.	c #63A0D1",
").	c #7E93A3",
"!.	c #60AEE8",
"~.	c #6BB9F2",
"{.	c #4E95CC",
"].	c #52A5E0",
"^.	c #427DAF",
"/.	c #6EA9D7",
"(.	c #84C6F9",
"_.	c #7FC2F6",
":.	c #92CFFF",
"<.	c #75AAD5",
"[.	c #5C9FD4",
"}.	c #82C8FC",
"|.	c #5196CD",
"1.	c #8095A7",
"2.	c #CABBB0",
"3.	c #66798B",
"4.	c #53A1DD",
"5.	c #5FB4EF",
"6.	c #4685B9",
"7.	c #65A5D6",
"8.	c #7DC1F6",
"9.	c #7ABFF3",
"0.	c #79BEF3",
"a.	c #7FC3F7",
"b.	c #87BDE8",
"c.	c #589DD3",
"d.	c #71BCF4",
"e.	c #4D95CA",
"f.	c #697D8F",
"g.	c #488ABF",
"h.	c #5CA0D6",
"i.	c #74BDF2",
"j.	c #72BAF0",
"k.	c #72BAEF",
"l.	c #75BDF3",
"m.	c #67A4D3",
"n.	c #65ADE3",
"o.	c #66B6EF",
"p.	c #4590C9",
"q.	c #568CB6",
"r.	c #68B8F2",
"s.	c #6BB6ED",
"t.	c #6BB5ED",
"u.	c #73BEF5",
"v.	c #5A9DD1",
"w.	c #579BD2",
"x.	c #5BB3F0",
"y.	c #4788BD",
"z.	c #9A9C9C",
"A.	c #E4DEDA",
"B.	c #4184BB",
"C.	c #68BAF4",
"D.	c #64B2EA",
"E.	c #63B2EA",
"F.	c #67B5ED",
"G.	c #61AEE6",
"H.	c #4686BA",
"I.	c #909295",
"J.	c #CACACB",
"K.	c #C8BAB0",
"L.	c #3E7FB5",
"M.	c #5BAFEA",
"N.	c #5BACE5",
"O.	c #5DB0E9",
"P.	c #407BAE",
"Q.	c #B6B7B9",
"R.	c #898C8E",
"S.	c #949598",
"T.	c #387CB6",
"U.	c #CBCDCF",
"V.	c #86888B",
"W.	c #A2A4A6",
"X.	c #7F8284",
"Y.	c #8E8F92",
"                                                ",
"                                          . +   ",
"                                        @ #     ",
"                                  $ % & %       ",
"                      * = = = - ; > , '         ",
"                  ) ! ~ { { { ] ^ / ( _         ",
"                : < [ } | 1 2 3 4 5 6           ",
"                  7 8 9 0 a b c d e f g         ",
"            h     i j k l m n o p q r s         ",
"          t u v w x y z A B C D E F G H         ",
"          I J K L M N   O P Q R S T U V         ",
"        W X Y Z `  .      ..+.@.#.$.%.&.        ",
"        *.=.-.;.>.,.'.    ).!.~.{.].^.          ",
"        /.(._.:.<.[.}.|.1.2.3.4.5.6.            ",
"        7.8.9.0.a.b.c.d.e.f.    g.              ",
"        h.i.j.j.k.l.m.n.o.p.                    ",
"        q.r.s.t.t.t.u.v.w.x.y.                  ",
"      z.A.B.C.D.D.D.E.F.G.H.                    ",
"      I.J.K.L.M.N.N.N.O.P.                      ",
"      Q.R.S.  T.^.^.^.&.                        ",
"    U.V.                                        ",
"  W.X.                                          ",
"  Y.                                            ",
"                                                "};
