/* XPM */
static char * data_sync_xpm[] = {
"24 24 288 2",
"  	c None",
". 	c #458DC0",
"+ 	c #3D87BA",
"@ 	c #3D86BA",
"# 	c #3D87BB",
"$ 	c #488EBF",
"% 	c #498FC0",
"& 	c #428ABC",
"* 	c #418ABB",
"= 	c #4189BB",
"- 	c #4189BC",
"; 	c #478DBF",
"> 	c #69ACDC",
", 	c #91CBF8",
"' 	c #92CEFB",
") 	c #93CDF9",
"! 	c #92CCF7",
"~ 	c #94CEFA",
"{ 	c #5097C9",
"] 	c #5096C9",
"^ 	c #84C1F7",
"/ 	c #81BFF7",
"( 	c #83BFF4",
"_ 	c #82C0F5",
": 	c #82BFF7",
"< 	c #63A6DB",
"[ 	c #70B2DF",
"} 	c #5BBEFF",
"| 	c #448EC2",
"1 	c #4AA0DA",
"2 	c #50B0F1",
"3 	c #438EC2",
"4 	c #79CEFF",
"5 	c #5197C9",
"6 	c #51B6FF",
"7 	c #428EC3",
"8 	c #2F9BEE",
"9 	c #3995D9",
"0 	c #448EC3",
"a 	c #2FA4FC",
"b 	c #65ACDE",
"c 	c #75B9E1",
"d 	c #72D2FF",
"e 	c #6DD0FF",
"f 	c #67C3F1",
"g 	c #5FB2DF",
"h 	c #6ED6FF",
"i 	c #8CDFFF",
"j 	c #4D98CE",
"k 	c #4D97CC",
"l 	c #54C6FF",
"m 	c #2CB7FF",
"n 	c #41A7DF",
"o 	c #38AFF1",
"p 	c #31B5FF",
"q 	c #35B8FF",
"r 	c #5FB0E3",
"s 	c #61A4DA",
"t 	c #3891DA",
"u 	c #338CD7",
"v 	c #338ED8",
"w 	c #318BD6",
"x 	c #53A4E8",
"y 	c #6392B0",
"z 	c #4D94C9",
"A 	c #4EA0E5",
"B 	c #2E8BD6",
"C 	c #308CD8",
"D 	c #2F8CD7",
"E 	c #338FDB",
"F 	c #6AA2CA",
"G 	c #FDB237",
"H 	c #FFDE64",
"I 	c #FFD763",
"J 	c #FFDB64",
"K 	c #FFDF66",
"L 	c #FFD663",
"M 	c #FFE166",
"N 	c #F49720",
"O 	c #F7971C",
"P 	c #FFE061",
"Q 	c #FCB134",
"R 	c #F0B556",
"S 	c #FFCA40",
"T 	c #EEA32D",
"U 	c #F1A52A",
"V 	c #F1A325",
"W 	c #F1A92F",
"X 	c #FFD862",
"Y 	c #E69732",
"Z 	c #E49733",
"` 	c #FFD55F",
" .	c #EFA733",
"..	c #EBA02A",
"+.	c #ECA22F",
"@.	c #EBA131",
"#.	c #FFC843",
"$.	c #EFB353",
"%.	c #EFB55C",
"&.	c #E9C76D",
"*.	c #EAC567",
"=.	c #E9C367",
"-.	c #E7BE65",
";.	c #EDD588",
">.	c #EF982B",
",.	c #4382B7",
"'.	c #377EB5",
").	c #E79831",
"!.	c #FFE27C",
"~.	c #FFD761",
"{.	c #FDD05F",
"].	c #FFD461",
"^.	c #FFD661",
"/.	c #FFD765",
"(.	c #F1B758",
"_.	c #5FA2D5",
":.	c #4193D8",
"<.	c #3B91D7",
"[.	c #3B91D8",
"}.	c #3A91D7",
"|.	c #57A2E1",
"1.	c #4F94C7",
"2.	c #357AB3",
"3.	c #C1DCEF",
"4.	c #377EB8",
"5.	c #DD9844",
"6.	c #E59C46",
"7.	c #E08E2C",
"8.	c #E08E2E",
"9.	c #E08E2D",
"0.	c #E19132",
"a.	c #D8A05C",
"b.	c #65ADE1",
"c.	c #7CCBFF",
"d.	c #72B0DF",
"e.	c #77BFF1",
"f.	c #7DCCFF",
"g.	c #71AFDD",
"h.	c #84D1FF",
"i.	c #4D97CD",
"j.	c #5895C5",
"k.	c #79AAD0",
"l.	c #85BCE0",
"m.	c #6CAAD7",
"n.	c #3481C0",
"o.	c #B4B7BC",
"p.	c #EAFFFF",
"q.	c #E1FFFF",
"r.	c #E3FFFF",
"s.	c #C4D4DB",
"t.	c #6DB3DF",
"u.	c #64C4FF",
"v.	c #5AB6EE",
"w.	c #53A5DA",
"x.	c #488EC2",
"y.	c #5EC0FA",
"z.	c #7CD1FF",
"A.	c #5098CA",
"B.	c #69A9D8",
"C.	c #71B8E7",
"D.	c #5BA7DB",
"E.	c #63B0E3",
"F.	c #3783BF",
"G.	c #C0B4AC",
"H.	c #F5FFFF",
"I.	c #E5F7FF",
"J.	c #E9FAFF",
"K.	c #CDCFCF",
"L.	c #6CB5E0",
"M.	c #6ACBFB",
"N.	c #67C9FA",
"O.	c #68CCFC",
"P.	c #69CDFE",
"Q.	c #66C8FA",
"R.	c #80D7FF",
"S.	c #5098CB",
"T.	c #3D79AC",
"U.	c #3D7AB0",
"V.	c #73BEEF",
"W.	c #5397CC",
"X.	c #B6B1AE",
"Y.	c #FAFAFA",
"Z.	c #F3F2F2",
"`.	c #F4F4F3",
" +	c #CDCCCC",
".+	c #ACA57F",
"++	c #9AB09F",
"@+	c #99B3A0",
"#+	c #98B2A0",
"$+	c #98B0A0",
"%+	c #99B2A0",
"&+	c #A4B7A0",
"*+	c #B29460",
"=+	c #3F7AAC",
"-+	c #5FA5D7",
";+	c #AEAEAC",
">+	c #CED7D6",
",+	c #C2C8C6",
"'+	c #C3C8C7",
")+	c #C6CBCA",
"!+	c #BCC1C1",
"~+	c #F2B148",
"{+	c #FFCC41",
"]+	c #E6922B",
"^+	c #F4AE34",
"/+	c #FFC93D",
"(+	c #E59029",
"_+	c #FFD657",
":+	c #E9972E",
"<+	c #AEB0AF",
"[+	c #E8FFFF",
"}+	c #DBF4FF",
"|+	c #DEF8FF",
"1+	c #C8D0CF",
"2+	c #F1B453",
"3+	c #FDCC52",
"4+	c #FBC64A",
"5+	c #F1AF3E",
"6+	c #E5922D",
"7+	c #FFD150",
"8+	c #FED76B",
"9+	c #E99730",
"0+	c #B0AFAF",
"a+	c #F8FFFF",
"b+	c #ECFAFE",
"c+	c #EFFCFF",
"d+	c #CED0CF",
"e+	c #A4A694",
"f+	c #85A3A1",
"g+	c #82A29E",
"h+	c #83A3A0",
"i+	c #84A5A1",
"j+	c #81A09D",
"k+	c #94B1B1",
"l+	c #9F9578",
"m+	c #AEADAD",
"n+	c #CECECE",
"o+	c #BDBDBD",
"p+	c #BEBEBD",
"q+	c #BEBDBD",
"r+	c #C1C1C1",
"s+	c #C1C0C0",
"t+	c #58A6E0",
"u+	c #8ACAFB",
"v+	c #8DCDFD",
"w+	c #8DCDFC",
"x+	c #8CCBFA",
"y+	c #8ECDFE",
"z+	c #82C8FE",
"A+	c #4A96CC",
"B+	c #ADAFAF",
"C+	c #E7FAFA",
"D+	c #E8F3F2",
"E+	c #E8F4F4",
"F+	c #C0CCCC",
"G+	c #67AEDF",
"H+	c #59BDFF",
"I+	c #4BA0DA",
"J+	c #6FC9FF",
"K+	c #4F96C9",
"L+	c #AEAEAE",
"M+	c #E7FEFF",
"N+	c #D8F2FF",
"O+	c #DCF5FF",
"P+	c #C8CECF",
"Q+	c #6FB7E1",
"R+	c #71D3FF",
"S+	c #68C3F2",
"T+	c #60B3DF",
"U+	c #70D6FF",
"V+	c #85DDFF",
"W+	c #5299CB",
"X+	c #B1B0B0",
"Y+	c #FFFFFF",
"Z+	c #FBFFFF",
"`+	c #FDFFFF",
" @	c #D2D3D2",
".@	c #4E94C6",
"+@	c #4E96C9",
"@@	c #4F97C9",
"#@	c #4F98CA",
"$@	c #4E97C9",
"%@	c #5198CB",
"&@	c #4587B6",
"*@	c #A8A8A8",
"=@	c #AFAEAE",
"-@	c #AFAEAD",
";@	c #A5A5A5",
"                                                ",
"  . + @ @ @ + # $             % & * = - * & ;   ",
"  > , ' ) ! ' ~ {             ] ^ / ( _ : ( <   ",
"  [ } | 1 2 3 4 5             ] 6 7 8 9 0 a b   ",
"  c d e f g h i j             k l m n o p q r   ",
"  s t u v v w x y             z A B C C D E F   ",
"  G H I J K L M N             O P I K J I H Q   ",
"  R S T U V W X Y             Z `  ...+.@.#.$.  ",
"  %.&.*.=.-.*.;.>.    ,.'.    ).!.~.{.].^./.(.  ",
"  _.:.<.[.<.}.|.1.    2.3.4.  5.6.7.8.8.9.0.a.  ",
"  b.c.d.e.f.g.h.i.  j.k.l.m.n.o.p.q.q.q.q.r.s.  ",
"  t.u.v.w.x.y.z.A.  B.C.D.E.F.G.H.I.I.I.I.J.K.  ",
"  L.M.N.O.P.Q.R.S.  T.U.V.W.  X.Y.Z.Z.Z.Z.`. +  ",
"  .+++@+#+$+%+&+*+    =+-+    ;+>+,+'+'+'+)+!+  ",
"  ~+{+]+^+/+(+_+:+            <+[+}+}+}+}+|+1+  ",
"  2+3+4+5+6+7+8+9+            0+a+b+b+b+b+c+d+  ",
"  e+f+g+h+i+j+k+l+            m+n+o+p+p+q+r+s+  ",
"  t+u+v+w+x+y+z+A+            B+C+D+D+D+D+E+F+  ",
"  G+H+| I+2 3 J+K+            L+M+N+N+N+N+O+P+  ",
"  Q+R+e S+T+U+V+W+            X+Y+Z+Z+Z+Z+`+ @  ",
"  .@+@@@@@#@$@%@&@            *@X+=@-@-@-@0+;@  ",
"                                                ",
"                                                ",
"                                                "};
