/* XPM */
static char * dev_xpm[] = {
"32 32 227 2",
"  	c None",
". 	c #E4E2E4",
"+ 	c #C4C2C4",
"@ 	c #A4A29C",
"# 	c #7C7A7C",
"$ 	c #5C5A54",
"% 	c #3C3234",
"& 	c #E4E6E4",
"* 	c #D4D2D4",
"= 	c #ACAAA4",
"- 	c #847E7C",
"; 	c #646264",
"> 	c #54524C",
", 	c #443A3C",
"' 	c #34322C",
") 	c #342E2C",
"! 	c #3C3A34",
"~ 	c #344234",
"{ 	c #545654",
"] 	c #4C4644",
"^ 	c #8C8E8C",
"/ 	c #6C6664",
"( 	c #242624",
"_ 	c #343A34",
": 	c #2C4234",
"< 	c #007234",
"[ 	c #006E34",
"} 	c #00723C",
"| 	c #0C6634",
"1 	c #646A64",
"2 	c #ECEEEC",
"3 	c #4C4A44",
"4 	c #7C7E7C",
"5 	c #ECEAE4",
"6 	c #949A94",
"7 	c #2C4A3C",
"8 	c #44564C",
"9 	c #546E64",
"0 	c #64B284",
"a 	c #8CBE9C",
"b 	c #ACC6BC",
"c 	c #CCDAD4",
"d 	c #ECEAEC",
"e 	c #4C4A4C",
"f 	c #747674",
"g 	c #CCC6CC",
"h 	c #BCBEBC",
"i 	c #E4DEDC",
"j 	c #D4D6D4",
"k 	c #DCDEDC",
"l 	c #F4EAEC",
"m 	c #ECE2E4",
"n 	c #DCD6DC",
"o 	c #C4CAC4",
"p 	c #9CBEAC",
"q 	c #7C9684",
"r 	c #B4B2B4",
"s 	c #000000",
"t 	c #544E4C",
"u 	c #CCCECC",
"v 	c #BCBABC",
"w 	c #C4C6C4",
"x 	c #8C8A8C",
"y 	c #6C766C",
"z 	c #3C925C",
"A 	c #0C8244",
"B 	c #006A34",
"C 	c #006A2C",
"D 	c #003A1C",
"E 	c #948A8C",
"F 	c #AFB1AF",
"G 	c #747274",
"H 	c #84827C",
"I 	c #1C1614",
"J 	c #2C2624",
"K 	c #3C7254",
"L 	c #5C8274",
"M 	c #849A94",
"N 	c #B4B6B4",
"O 	c #949294",
"P 	c #ACAEAC",
"Q 	c #CCC6C4",
"R 	c #DCD2DC",
"S 	c #E4DEE4",
"T 	c #ECE6E4",
"U 	c #CCCACC",
"V 	c #E4E2DC",
"W 	c #DCE2DC",
"X 	c #74726C",
"Y 	c #CCCAC4",
"Z 	c #9C9E9C",
"` 	c #A49AAC",
" .	c #A49EB4",
"..	c #D4D6CC",
"+.	c #DCDADC",
"@.	c #9C9694",
"#.	c #D4D2CC",
"$.	c #8C82A4",
"%.	c #1C0664",
"&.	c #746E9C",
"*.	c #DCD6D4",
"=.	c #DCDEE4",
"-.	c #949694",
";.	c #8C86A4",
">.	c #240E6C",
",.	c #4C3E84",
"'.	c #D4CED4",
").	c #D4CECC",
"!.	c #DCDAD4",
"~.	c #9C92AC",
"{.	c #1C0A64",
"].	c #3C2674",
"^.	c #ACAAAC",
"/.	c #ACA6BC",
"(.	c #24166C",
"_.	c #C4C6CC",
":.	c #CCD2D4",
"<.	c #ACB2AC",
"[.	c #848A84",
"}.	c #64625C",
"|.	c #443E3C",
"1.	c #746E6C",
"2.	c #ACA6A4",
"3.	c #ECEEE4",
"4.	c #7C729C",
"5.	c #C4BEC4",
"6.	c #D4DAD4",
"7.	c #8C8A84",
"8.	c #444644",
"9.	c #3C322C",
"0.	c #442624",
"a.	c #4C221C",
"b.	c #843634",
"c.	c #6C3A34",
"d.	c #2C2A24",
"e.	c #E4EAE4",
"f.	c #2C2224",
"g.	c #642624",
"h.	c #8C2624",
"i.	c #842A2C",
"j.	c #A42A2C",
"k.	c #AC2A2C",
"l.	c #AC2624",
"m.	c #6C2E2C",
"n.	c #543A3C",
"o.	c #8C2E2C",
"p.	c #AC2A24",
"q.	c #7C2A2C",
"r.	c #B42624",
"s.	c #84322C",
"t.	c #242A2C",
"u.	c #8C8284",
"v.	c #8C8684",
"w.	c #4C3634",
"x.	c #942624",
"y.	c #8C2A2C",
"z.	c #942E2C",
"A.	c #643E44",
"B.	c #CAC8CA",
"C.	c #C2C4C2",
"D.	c #848684",
"E.	c #4C3A34",
"F.	c #8C3634",
"G.	c #743234",
"H.	c #54322C",
"I.	c #443234",
"J.	c #4C5A3C",
"K.	c #241E24",
"L.	c #94928C",
"M.	c #D5D3D5",
"N.	c #3C3E3C",
"O.	c #5C4A4C",
"P.	c #444244",
"Q.	c #2C2E2C",
"R.	c #442A2C",
"S.	c #4C4A34",
"T.	c #545E44",
"U.	c #342E34",
"V.	c #6C6A64",
"W.	c #844644",
"X.	c #6C524C",
"Y.	c #5C565C",
"Z.	c #948E8C",
"`.	c #545E64",
" +	c #5C6264",
".+	c #3C3A3C",
"++	c #343234",
"@+	c #24221C",
"#+	c #DCE2E4",
"$+	c #4C3E3C",
"%+	c #2C566C",
"&+	c #3C8ABC",
"*+	c #2C668C",
"=+	c #4C423C",
"-+	c #4C4244",
";+	c #A4A2A4",
">+	c #443A34",
",+	c #2C6284",
"'+	c #64B2E4",
")+	c #446E8C",
"!+	c #444E54",
"~+	c #44525C",
"{+	c #342A2C",
"]+	c #3C5A6C",
"^+	c #00568C",
"/+	c #445664",
"(+	c #3486C4",
"_+	c #2C76A4",
":+	c #3C3634",
"<+	c #2C5E7C",
"[+	c #6CBAEC",
"}+	c #447A9C",
"|+	c #3C5664",
"1+	c #3C8EC4",
"2+	c #2C5E84",
"3+	c #BCB6B4",
"4+	c #24526C",
"5+	c #2C729C",
"6+	c #2C4654",
"7+	c #7C7674",
"8+	c #645E5C",
"9+	c #7C7A74",
"0+	c #ACA29C",
"a+	c #C4C2BC",
"b+	c #B4AEB4",
"c+	c #CCCED4",
"d+	c #5C5A5C",
"                      . + @ # $ % $ &                           ",
"            * = - ; > , ' ) ) ! ~ { *                           ",
"            ] ! ^ / ( _ _ : < [ } | 1 * 2                       ",
"            3 4 . 5 6 7 8 9 0 a b c . d d .                     ",
"            e f g h i j k d l m n o p q r .                   s ",
"            t f u + v w h x y z A B C D E 2         s s s s s F ",
"            t G u + h u H I J ~ K L M N k .   s s s   2 & . k . ",
"            t G u + + g v O P Q R S T T . . d & k k k . & & d   ",
"          s > f u + + U j V . k k k W . & d d d & d d d d d . . ",
"      s s s t X u Y U U k k k . . . . . . . . U U & . & d . . . ",
"F s s   2 2 Z - * `  ...U k & 2 . . . . . . . & . . d d d & . . ",
"s k * * * j +.@.#.$.%.&.w U . & . S +.+.n *.*.*.+.j k U d +.. . ",
"v v =.+.+.+.U -.#.;.>.%.,.U U '.).'.* j j !.+.. O O O . . . . . ",
"P + u U U u w O ).~.{.>.].+ u j j !.k & O O O O O U U . . . . . ",
"+ u U U * * U ^.g #./.].(._.j j d O O O :.<.[.f }.|.1.. !.* u k ",
"+ u u * w * & +.2.U 3.j 4.5.6.j #.7.1 8.9.0.a.b.c.d.- & u j +.j ",
"w u +.. U * +.j f h V V e.* * . -.f.g.h.i.j.k.l.m.( H   +.& d s ",
"w * '.* +.+.j + G v & k +.* * . Z n.o.p.q.i.l.r.s.t.u.F s s s F ",
"w * ).u U u P v.v.N & k k * * . 6 w.p.x.q.y.z.y.A.3 x s         ",
"B.F C.u * k u D.U U k k k * * . -.E.F.G.H.I., J.J.K.L.          ",
"F M.. & . d h - U U k k k * * . O N.O.P.Q.' R.S.T.U.L.          ",
"F & d     s ^ V.* U k k k * * . L.N.W.X.> e { Y.Y.! @.          ",
"F s s s s   Z.V.* U k k k j * . Z.$ X `. +3 .+++9.@+Z           ",
"s           Z.V.* U k k k j * #+^ $+%+&+*+=+] -+|.J ;+          ",
"            Z./ * U k k k j * . ^ >+,+'+)+=+!+~+t {+2.          ",
"            Z./ * U k k k j * k ^ >+]+^+%+/+(+_+> :+=           ",
"            L./ * w j k k j * . x >+<+[+}+|+1+2+:+++3+          ",
"            7.}.* w U j +.j j k x >+4+5+6+|.`.7+@ w k           ",
"            w # U g U w +.j u . - :+8+9+0+a+.                   ",
"                u w U b+Z.+ + w + h u u _.c+                    ",
"                  *.Q N d+1.v N w * +.d                         ",
"                    i r w j &                                   "};
