/* XPM */
static char * disconnect_xpm[] = {
"24 24 180 2",
"  	c None",
". 	c #9FA1A3",
"+ 	c #4F8ABB",
"@ 	c #4F8ABC",
"# 	c #ADAAA8",
"$ 	c #AFB1B3",
"% 	c #8E9093",
"& 	c #9FA0A4",
"* 	c #7DAFD7",
"= 	c #BBDDF8",
"- 	c #B9DCF7",
"; 	c #ADD2F0",
"> 	c #95ADC2",
", 	c #C4C4C5",
"' 	c #A5A7A9",
") 	c #5290C2",
"! 	c #5E98C7",
"~ 	c #ADDAFF",
"{ 	c #8CCAFD",
"] 	c #8CCAFC",
"^ 	c #8ECBFE",
"/ 	c #68ABE2",
"( 	c #94A6B4",
"_ 	c #98999B",
": 	c #3C7EB3",
"< 	c #9ECFF9",
"[ 	c #9ACCF7",
"} 	c #6AA3D2",
"| 	c #A0D2F9",
"1 	c #81C3F7",
"2 	c #85C5F7",
"3 	c #89C9FC",
"4 	c #79B4E3",
"5 	c #5E7E98",
"6 	c #4B8BBF",
"7 	c #99D4FF",
"8 	c #84C4F7",
"9 	c #518FC1",
"0 	c #A4D7FD",
"a 	c #77BEF3",
"b 	c #7BC0F4",
"c 	c #79BEF3",
"d 	c #A7D7FB",
"e 	c #4082B8",
"f 	c #4A8ABE",
"g 	c #88C7F9",
"h 	c #81C6FA",
"i 	c #4D8DC0",
"j 	c #86C4F2",
"k 	c #71B9F0",
"l 	c #6FB8EF",
"m 	c #94CDF6",
"n 	c #4283B7",
"o 	c #A0A0A0",
"p 	c #5494C8",
"q 	c #80C2F5",
"r 	c #75BBF0",
"s 	c #5A9BCE",
"t 	c #75BAED",
"u 	c #65B3EB",
"v 	c #82C3F2",
"w 	c #4383B8",
"x 	c #A3A4A4",
"y 	c #B2B4B6",
"z 	c #818181",
"A 	c #7DC3F8",
"B 	c #6BB5EC",
"C 	c #4C8DC0",
"D 	c #6CB8EE",
"E 	c #5BADE6",
"F 	c #6EB7EC",
"G 	c #4484B8",
"H 	c #528FC1",
"I 	c #A4A4A4",
"J 	c #B6B8BA",
"K 	c #9D9FA2",
"L 	c #7E7E7F",
"M 	c #4989BE",
"N 	c #70B8EE",
"O 	c #64B4ED",
"P 	c #488ABF",
"Q 	c #57AAE4",
"R 	c #58A9E2",
"S 	c #4685B8",
"T 	c #3376AD",
"U 	c #9CCEF8",
"V 	c #9CCDF7",
"W 	c #6B97BC",
"X 	c #B0B1B3",
"Y 	c #808182",
"Z 	c #4F91C6",
"` 	c #67B3EA",
" .	c #5CABE5",
"..	c #488FC5",
"+.	c #4687BB",
"@.	c #7CB0DA",
"#.	c #5290C3",
"$.	c #99D3FF",
"%.	c #8CC3F0",
"&.	c #538EBF",
"*.	c #857D77",
"=.	c #A1A1A1",
"-.	c #61B3EC",
";.	c #4F97CE",
">.	c #5391C3",
",.	c #A4D8FF",
"'.	c #BAE2FF",
").	c #508FC1",
"!.	c #86C6F9",
"~.	c #8AC1EC",
"{.	c #468AC1",
"].	c #AEAFB0",
"^.	c #ACAEB0",
"/.	c #787878",
"(.	c #4684B8",
"_.	c #5190C2",
":.	c #98D1FD",
"<.	c #82C4F8",
"[.	c #9DD0F9",
"}.	c #66A2D1",
"|.	c #7EC2F6",
"1.	c #78B7E7",
"2.	c #4C8EC3",
"3.	c #ADAFB0",
"4.	c #8B8C8E",
"5.	c #508FC2",
"6.	c #8CCAFA",
"7.	c #7FC1F5",
"8.	c #7FC2F6",
"9.	c #91CAF6",
"0.	c #508EC1",
"a.	c #7EC4F9",
"b.	c #6AAEE2",
"c.	c #4E8ABA",
"d.	c #B3AFAC",
"e.	c #4E8EC1",
"f.	c #80C3F7",
"g.	c #78BDF3",
"h.	c #78BEF3",
"i.	c #75BCF2",
"j.	c #92CDFA",
"k.	c #4C8CC0",
"l.	c #70BAF1",
"m.	c #61A8DB",
"n.	c #4784B4",
"o.	c #488CC3",
"p.	c #76BEF4",
"q.	c #70B9EF",
"r.	c #71B9EF",
"s.	c #6EB8EF",
"t.	c #7BBEF0",
"u.	c #589ACE",
"v.	c #69B5ED",
"w.	c #54A1D8",
"x.	c #4389C1",
"y.	c #8192A0",
"z.	c #539FDA",
"A.	c #6AB5ED",
"B.	c #69B4EC",
"C.	c #6CB5EC",
"D.	c #5DB1EB",
"E.	c #4E96CE",
"F.	c #939698",
"G.	c #DEDEDF",
"H.	c #8FA8BE",
"I.	c #5BA7DE",
"J.	c #62B1E9",
"K.	c #62B0E8",
"L.	c #4482B5",
"M.	c #8D8F92",
"N.	c #AEAFB2",
"O.	c #B9B7B6",
"P.	c #6D859A",
"Q.	c #509BD3",
"R.	c #5199D0",
"S.	c #519AD0",
"T.	c #BFC1C3",
"U.	c #848789",
"V.	c #85888A",
"W.	c #878A8C",
"                                            .   ",
"                            + @ @ @   # $ % &   ",
"                          * = - - - ; > , '     ",
"                      ) ! ~ { ] ] ] ^ / ( _     ",
"                    : < [ } | 1 2 2 2 3 4 5     ",
"                      6 7 8 9 0 a b b c d e     ",
"                        f g h i j k k l m n     ",
"                    o     p q r s t u u v w     ",
"                  x y z     f A B C D E F G     ",
"          ) H   I J K L       M N O P Q R S     ",
"        T U V W X K Y           Z `  ...+.      ",
"        @.#.$.%.&.*.        =.    M -.;.        ",
"      >.,.'.).!.~.{.      ].^./.    (.          ",
"      _.:.<.[.}.|.1.2.  3.^.4.                  ",
"      5.6.7.8.9.0.a.b.c.d.4.                    ",
"      e.f.g.h.i.j.k.l.m.n.                      ",
"      o.p.q.q.r.s.t.u.v.w.x.                    ",
"      y.z.A.B.B.B.v.C.k.D.E.                    ",
"    F.G.H.I.J.J.J.J.J.K.L.                      ",
"    M.N.O.P.Q.R.R.R.S.+.                        ",
"    T.U.V.                                      ",
"    W.                                          ",
"                                                ",
"                                                "};
