/* XPM */
static char * disk_xpm[] = {
"24 24 260 2",
"  	c None",
". 	c #3D9CCF",
"+ 	c #7ABADA",
"@ 	c #73B6D9",
"# 	c #7EBBD9",
"$ 	c #7FBBD9",
"% 	c #3D9ACD",
"& 	c #0073AD",
"* 	c #C0E1F5",
"= 	c #1492DD",
"- 	c #1192E0",
"; 	c #D8E5EE",
"> 	c #E4EAEE",
", 	c #E3E9EE",
"' 	c #0071AC",
") 	c #C2E3F4",
"! 	c #0583CF",
"~ 	c #0063A2",
"{ 	c #D6E6EE",
"] 	c #E0E9EE",
"^ 	c #E1ECF1",
"/ 	c #E0EAF0",
"( 	c #DFEAEF",
"_ 	c #DEE9EE",
": 	c #E0EBF0",
"< 	c #E0EAEF",
"[ 	c #DEE9ED",
"} 	c #E1EBF0",
"| 	c #DFE9ED",
"1 	c #0073AE",
"2 	c #BBDEF3",
"3 	c #0E89D4",
"4 	c #0370B2",
"5 	c #D9E8F0",
"6 	c #DBE4E9",
"7 	c #8F9294",
"8 	c #B5B9BB",
"9 	c #B6BABD",
"0 	c #D2DADE",
"a 	c #9CA1A3",
"b 	c #BABEC1",
"c 	c #B3B7B9",
"d 	c #E4EEF4",
"e 	c #939798",
"f 	c #B6B9BB",
"g 	c #DEE6EB",
"h 	c #D8E7F0",
"i 	c #0074AE",
"j 	c #B3DAF2",
"k 	c #1691DB",
"l 	c #0F8DD9",
"m 	c #DBE8F1",
"n 	c #E4EEF3",
"o 	c #D5DEE3",
"p 	c #DDE7EC",
"q 	c #DCE6EB",
"r 	c #E2ECF2",
"s 	c #D6E0E5",
"t 	c #DEE7ED",
"u 	c #DBE4EA",
"v 	c #E6F0F6",
"w 	c #DCE5EA",
"x 	c #E4ECF3",
"y 	c #ADD7F1",
"z 	c #1D94DC",
"A 	c #1591DB",
"B 	c #DCEAF3",
"C 	c #E6EFF5",
"D 	c #D6DFE6",
"E 	c #DEE8EE",
"F 	c #DEE7EE",
"G 	c #DDE7ED",
"H 	c #D7E0E7",
"I 	c #DFE9EF",
"J 	c #DCE5EC",
"K 	c #E5EEF5",
"L 	c #A6D4F0",
"M 	c #2498DD",
"N 	c #1A94DC",
"O 	c #DFECF5",
"P 	c #E1EAEF",
"Q 	c #929596",
"R 	c #B8BCBE",
"S 	c #BBBEC1",
"T 	c #BBBEC0",
"U 	c #C0C4C7",
"V 	c #C5CCD1",
"W 	c #979B9C",
"X 	c #BEC2C4",
"Y 	c #E3ECF1",
"Z 	c #DEECF5",
"` 	c #0175AE",
" .	c #9FD1EF",
"..	c #2A9BDE",
"+.	c #2097DC",
"@.	c #E1EEF7",
"#.	c #EDF7FE",
"$.	c #F9FFFF",
"%.	c #F4FFFF",
"&.	c #EFF9FF",
"*.	c #FBFFFF",
"=.	c #F6FFFF",
"-.	c #F2FEFF",
";.	c #F7FFFF",
">.	c #F5FFFF",
",.	c #F3FFFF",
"'.	c #ECF5FC",
").	c #0276AE",
"!.	c #99CEEE",
"~.	c #319EE0",
"{.	c #2699DD",
"].	c #E3F0F8",
"^.	c #DDE5EB",
"/.	c #72706E",
"(.	c #93918F",
"_.	c #E4EEF2",
":.	c #53514F",
"<.	c #949391",
"[.	c #A3A4A3",
"}.	c #A8AEAF",
"|.	c #928F8F",
"1.	c #9A9897",
"2.	c #928F8E",
"3.	c #E3EBF0",
"4.	c #E3F0F9",
"5.	c #0477AE",
"6.	c #94CCED",
"7.	c #38A2E2",
"8.	c #2C9CDF",
"9.	c #EAF4FB",
"0.	c #F0F8FF",
"a.	c #EEF8FF",
"b.	c #FAFFFF",
"c.	c #F2FDFF",
"d.	c #EFF7FF",
"e.	c #E9F4FB",
"f.	c #8FC9EC",
"g.	c #3FA4E2",
"h.	c #39A1E0",
"i.	c #B5DCF5",
"j.	c #FFFFFF",
"k.	c #0577AE",
"l.	c #8BC9EC",
"m.	c #45A7E3",
"n.	c #4DABE4",
"o.	c #40A4E2",
"p.	c #349FE0",
"q.	c #339FE0",
"r.	c #87C6EC",
"s.	c #4CABE5",
"t.	c #53AEE6",
"u.	c #52AEE6",
"v.	c #47A9E5",
"w.	c #3EA5E3",
"x.	c #0778AE",
"y.	c #83C4EC",
"z.	c #58B1E7",
"A.	c #4EADE7",
"B.	c #A4CCE8",
"C.	c #F1F6F9",
"D.	c #EBF2F9",
"E.	c #EBF3F9",
"F.	c #EBF2F8",
"G.	c #F1F6FA",
"H.	c #81C3EC",
"I.	c #59B1E6",
"J.	c #5DB3E7",
"K.	c #47AAE5",
"L.	c #FFFFFB",
"M.	c #CDDBEB",
"N.	c #CAD8E8",
"O.	c #C5D2E0",
"P.	c #C7D3E2",
"Q.	c #D0DEED",
"R.	c #CCDAE9",
"S.	c #CDDBE9",
"T.	c #CDDAE9",
"U.	c #CAD8E7",
"V.	c #0778AF",
"W.	c #7EC3EA",
"X.	c #5EB5E8",
"Y.	c #61B6E9",
"Z.	c #4BACE5",
"`.	c #FFFDFC",
" +	c #EAF5FF",
".+	c #6E7174",
"++	c #515255",
"@+	c #56595D",
"#+	c #E3E9EF",
"$+	c #D3DFEF",
"%+	c #D4E0EF",
"&+	c #D5E1EF",
"*+	c #D1DEEE",
"=+	c #0878AE",
"-+	c #7BC1EB",
";+	c #64B8EA",
">+	c #67B8EA",
",+	c #51AFE7",
"'+	c #FFFEFC",
")+	c #F2FBFF",
"!+	c #5F5E5E",
"~+	c #77808A",
"{+	c #666E78",
"]+	c #E9EEF0",
"^+	c #D6E2F2",
"/+	c #D8E4F2",
"(+	c #D5E1F0",
"_+	c #FFFEFD",
":+	c #0878AF",
"<+	c #79C0EA",
"[+	c #6BBBEA",
"}+	c #6CBBEA",
"|+	c #57B2E7",
"1+	c #FFFFFE",
"2+	c #F4FDFF",
"3+	c #636363",
"4+	c #7B838D",
"5+	c #6A717D",
"6+	c #EBF0F0",
"7+	c #DAE7F7",
"8+	c #DCE7F5",
"9+	c #D9E6F5",
"0+	c #FFFFFD",
"a+	c #77C0EA",
"b+	c #71BEEC",
"c+	c #72BEEB",
"d+	c #5DB5E9",
"e+	c #F8FFFF",
"f+	c #676767",
"g+	c #7E8790",
"h+	c #6F7680",
"i+	c #EEF0F0",
"j+	c #DEEBF9",
"k+	c #DFEBF8",
"l+	c #DEE9F8",
"m+	c #0879B0",
"n+	c #0976AB",
"o+	c #7FC6F0",
"p+	c #87CBF6",
"q+	c #87CAF5",
"r+	c #72C1F2",
"s+	c #656564",
"t+	c #7B818B",
"u+	c #70747C",
"v+	c #F3F2F2",
"w+	c #E8F3FF",
"x+	c #E8F2FF",
"y+	c #7FC6EF",
"z+	c #076B9B",
"A+	c #0F79AD",
"B+	c #0F7DB2",
"C+	c #0E7CB2",
"D+	c #0071AD",
"E+	c #DAD4D9",
"F+	c #C0C9D4",
"G+	c #B7C3CF",
"H+	c #C1C9D4",
"I+	c #C1CAD4",
"J+	c #0F7DB3",
"K+	c #0D6B99",
"                                                ",
"    . + @ # $ $ $ $ $ $ $ $ $ $ $ $ # @ + %     ",
"  & * = - ; > , , , , , , , , , , > ; - = * &   ",
"  ' ) ! ~ { ] ^ / ( _ : < ( [ } ( | { ~ ! ) '   ",
"  1 2 3 4 5 6 7 8 9 0 a b c d e f g h 4 3 2 1   ",
"  i j k l m n o p q r s t u v o w x m l k j i   ",
"  i y z A B C D E F G G F / H I J K B A z y i   ",
"  i L M N O P Q R S b T U V W X f Y Z N M L i   ",
"  `  ...+.@.#.$.%.&.*.=.-.-.;.>.,.'.@.+... .`   ",
"  ).!.~.{.].^./.(._.:.<.[.}.|.1.2.3.4.{.~.!.).  ",
"  5.6.7.8.9.0.=.%.a.b.>.c.c.>.%.%.d.e.8.7.6.5.  ",
"  5.f.g.h.i.j.j.j.j.j.j.j.j.j.j.j.j.i.h.g.f.5.  ",
"  k.l.m.n.o.p.q.q.q.q.q.q.q.q.q.q.p.o.n.m.l.k.  ",
"  k.r.s.t.u.v.w.w.w.w.w.w.w.w.w.w.v.u.t.s.r.k.  ",
"  x.y.u.z.A.B.C.D.E.E.F.F.F.F.F.G.B.A.z.u.y.x.  ",
"  x.H.I.J.K.L.M.N.O.P.Q.R.S.S.T.U.L.K.J.I.H.x.  ",
"  V.W.X.Y.Z.`. +.+++@+#+$+%+&+&+*+`.Z.Y.X.W.V.  ",
"  =+-+;+>+,+'+)+!+~+{+]+^+/+/+/+(+_+,+>+;+-+=+  ",
"  :+<+[+}+|+1+2+3+4+5+6+7+8+8+8+9+0+|+}+[+<+:+  ",
"  :+a+b+c+d+j.e+f+g+h+i+j+k+k+k+l+j.d+c+b+a+m+  ",
"  n+o+p+q+r+j.j.s+t+u+v+w+w+w+w+x+j.r+q+p+y+z+  ",
"    A+B+C+D+E+F+      G+H+I+I+I+H+E+D+C+J+K+    ",
"                                                ",
"                                                "};
