/* XPM */
static char * exclamation_xpm[] = {
"24 24 296 2",
"  	c None",
". 	c #C13B2B",
"+ 	c #C74837",
"@ 	c #CD503D",
"# 	c #CD4D3B",
"$ 	c #CC4C3A",
"% 	c #CB4A38",
"& 	c #C44332",
"* 	c #C03C2C",
"= 	c #C43A2B",
"- 	c #E26F5B",
"; 	c #ED937D",
"> 	c #FBAF99",
", 	c #FFC0A9",
"' 	c #FFBDA8",
") 	c #FFB7A3",
"! 	c #FFB39E",
"~ 	c #F89B86",
"{ 	c #E67864",
"] 	c #DB5844",
"^ 	c #C43C2C",
"/ 	c #DB5642",
"( 	c #F5A089",
"_ 	c #FEC2AC",
": 	c #FDA58F",
"< 	c #F1765E",
"[ 	c #E85B42",
"} 	c #E7573D",
"| 	c #E8583E",
"1 	c #E95C43",
"2 	c #F1735B",
"3 	c #FE9781",
"4 	c #FAA08C",
"5 	c #E6705B",
"6 	c #D64836",
"7 	c #E46853",
"8 	c #FDBBA3",
"9 	c #FDB09A",
"0 	c #EC654D",
"a 	c #E23E22",
"b 	c #E34125",
"c 	c #E44025",
"d 	c #E44328",
"e 	c #E24125",
"f 	c #EE654D",
"g 	c #FD9984",
"h 	c #ED7B66",
"i 	c #DA4A38",
"j 	c #DC5A47",
"k 	c #FFBFA7",
"l 	c #F9A18D",
"m 	c #E74C33",
"n 	c #E33F24",
"o 	c #E74B30",
"p 	c #E74C32",
"q 	c #E6452A",
"r 	c #E43618",
"s 	c #E64A2F",
"t 	c #E34025",
"u 	c #E95036",
"v 	c #FA927E",
"w 	c #ED7461",
"x 	c #D44331",
"y 	c #C33D2C",
"z 	c #F9AB94",
"A 	c #FBA894",
"B 	c #E84F36",
"C 	c #E6472C",
"D 	c #E85037",
"E 	c #E85036",
"F 	c #E74429",
"G 	c #EB6751",
"H 	c #F8CBC3",
"I 	c #E6472D",
"J 	c #EA533A",
"K 	c #FC8E7B",
"L 	c #E45B49",
"M 	c #C23B2B",
"N 	c #F2836D",
"O 	c #FCBBA6",
"P 	c #EF644D",
"Q 	c #E6482D",
"R 	c #EA543A",
"S 	c #E95137",
"T 	c #EA563D",
"U 	c #E63A1C",
"V 	c #F39F90",
"W 	c #FFFFFF",
"X 	c #EA5339",
"Y 	c #E6482E",
"Z 	c #F2664F",
"` 	c #F48370",
" .	c #E04836",
"..	c #AD3829",
"+.	c #FAAA93",
"@.	c #F99782",
"#.	c #E8462C",
"$.	c #EC563D",
"%.	c #EC543A",
"&.	c #ED5941",
"*.	c #EA3C1F",
"=.	c #F4A091",
"-.	c #EC563C",
";.	c #E94B32",
">.	c #F9846F",
",.	c #E45542",
"'.	c #AA3325",
").	c #DD614D",
"!.	c #FCB099",
"~.	c #F3715A",
"{.	c #EB4F36",
"].	c #ED583F",
"^.	c #ED573E",
"/.	c #EE5C43",
"(.	c #EB4125",
"_.	c #F59E90",
":.	c #EB5239",
"<.	c #F56E57",
"[.	c #ED6A59",
"}.	c #D03A29",
"|.	c #E8715C",
"1.	c #FFB8A2",
"2.	c #ED5A42",
"3.	c #EE573F",
"4.	c #EE5941",
"5.	c #EE5D45",
"6.	c #EC472D",
"7.	c #F49182",
"8.	c #ED563E",
"9.	c #F1634B",
"0.	c #F47A69",
"a.	c #D43523",
"b.	c #EA715C",
"c.	c #FFB7A1",
"d.	c #ED563F",
"e.	c #EF5B43",
"f.	c #EF5C45",
"g.	c #EF5F48",
"h.	c #EE4E36",
"i.	c #F38170",
"j.	c #FFFCFB",
"k.	c #EE5A43",
"l.	c #F1624A",
"m.	c #F37967",
"n.	c #D4301F",
"o.	c #E76D58",
"p.	c #FFB29E",
"q.	c #F05B44",
"r.	c #F25E47",
"s.	c #F25F48",
"t.	c #F2614B",
"u.	c #F1553D",
"v.	c #F37864",
"w.	c #FEF3F1",
"x.	c #F15D46",
"y.	c #F4664F",
"z.	c #F27664",
"A.	c #D22E1C",
"B.	c #E76B56",
"C.	c #FFB09B",
"D.	c #F25E48",
"E.	c #F3604A",
"F.	c #F3624C",
"G.	c #F3634E",
"H.	c #F35D47",
"I.	c #F46751",
"J.	c #FEEDEA",
"K.	c #F2604A",
"L.	c #F66953",
"M.	c #D22C1B",
"N.	c #DF5F4B",
"O.	c #FCA690",
"P.	c #F76F5A",
"Q.	c #F5624C",
"R.	c #F56550",
"S.	c #F5654F",
"T.	c #F56650",
"U.	c #F5644E",
"V.	c #F9A193",
"W.	c #F4624C",
"X.	c #FA725D",
"Y.	c #EF6A59",
"Z.	c #D0301E",
"`.	c #BE4635",
" +	c #F5917C",
".+	c #FC8874",
"++	c #F4614B",
"@+	c #F66852",
"#+	c #F66853",
"$+	c #F6604A",
"%+	c #F45037",
"&+	c #F5644F",
"*+	c #FD7E6A",
"=+	c #E34D3B",
"-+	c #B83223",
";+	c #742016",
">+	c #F67B64",
",+	c #FB9C89",
"'+	c #F76955",
")+	c #F76954",
"!+	c #F76B57",
"~+	c #F76A56",
"{+	c #F76D59",
"]+	c #F75F49",
"^+	c #F98E7F",
"/+	c #FFFBFA",
"(+	c #F96E59",
"_+	c #F8816E",
":+	c #E23624",
"<+	c #76271E",
"[+	c #CE4A38",
"}+	c #F58D78",
"|+	c #FE8E7A",
"1+	c #F96652",
"2+	c #FA6C58",
"3+	c #FA6D59",
"4+	c #FA715E",
"5+	c #FA5943",
"6+	c #FCAEA4",
"7+	c #F96D58",
"8+	c #F96853",
"9+	c #FF8976",
"0+	c #E44F3D",
"a+	c #C63423",
"b+	c #80261B",
"c+	c #E65B46",
"d+	c #F6917D",
"e+	c #FF8875",
"f+	c #F96A57",
"g+	c #FA6E5B",
"h+	c #FB7360",
"i+	c #FB654F",
"j+	c #FC9283",
"k+	c #FFF7F6",
"l+	c #F96B58",
"m+	c #FF8975",
"n+	c #ED6655",
"o+	c #D72F1E",
"p+	c #812C22",
"q+	c #9D3125",
"r+	c #E95E49",
"s+	c #F68B79",
"t+	c #FF8C79",
"u+	c #FC725F",
"v+	c #FC6E5B",
"w+	c #FC715E",
"x+	c #FC6D5A",
"y+	c #FC6D59",
"z+	c #FD7461",
"A+	c #FF8B79",
"B+	c #ED6958",
"C+	c #DB2F1E",
"D+	c #9C3225",
"E+	c #E4513E",
"F+	c #EF7662",
"G+	c #FD8E7B",
"H+	c #FF8775",
"I+	c #FF7B69",
"J+	c #FE7562",
"K+	c #FE7460",
"L+	c #FE7461",
"M+	c #FE7663",
"N+	c #FF7C69",
"O+	c #FC8673",
"P+	c #E75543",
"Q+	c #DA2F1F",
"R+	c #9C3125",
"S+	c #892B20",
"T+	c #D0402E",
"U+	c #E85845",
"V+	c #EF6A57",
"W+	c #F67D6B",
"X+	c #FA8A78",
"Y+	c #FA8876",
"Z+	c #FA8775",
"`+	c #FB8775",
" @	c #F47564",
".@	c #EA5745",
"+@	c #E23B2A",
"@@	c #CA3120",
"#@	c #8B2F23",
"$@	c #972D21",
"%@	c #C03828",
"&@	c #DF412D",
"*@	c #E43D2A",
"=@	c #E33725",
"-@	c #E13321",
";@	c #E33321",
">@	c #DC3523",
",@	c #BD3020",
"'@	c #5B1E17",
")@	c #5D1F18",
"!@	c #5E2018",
"~@	c #5E2019",
"{@	c #5E2119",
"]@	c #5B2019",
"                . + @ # $ % & *                 ",
"            = - ; > , ' ) ! ~ { ] ^             ",
"          / ( _ : < [ } | 1 2 3 4 5 6           ",
"        7 8 9 0 a b c d d c e b f g h i         ",
"      j k l m n o p q r r q p s t u v w x       ",
"    y z A B C D E F G H H G F E E I J K L M     ",
"    N O P Q R S T U V W W V U T S X Y Z `  .    ",
"  ..+.@.#.$.%.%.&.*.=.W W =.*.&.%.%.-.;.>.,.'.  ",
"  ).!.~.{.].^.^./.(._.W W _.(./.^.^.].:.<.[.}.  ",
"  |.1.2.3.4.4.4.5.6.7.W W 7.6.5.4.4.4.8.9.0.a.  ",
"  b.c.d.e.f.f.f.g.h.i.j.j.i.h.g.f.f.f.k.l.m.n.  ",
"  o.p.q.r.s.s.s.t.u.v.w.w.v.u.t.s.s.s.x.y.z.A.  ",
"  B.C.D.E.F.F.F.G.H.I.J.J.I.H.G.F.F.F.K.L.z.M.  ",
"  N.O.P.Q.R.S.S.T.U.R.V.V.R.U.T.S.S.S.W.X.Y.Z.  ",
"  `. +.+++L.@+@+@+#+$+%+%+$+#+@+@+@+L.&+*+=+-+  ",
"  ;+>+,+'+)+!+~+{+]+^+/+/+^+]+{+~+~+)+(+_+:+<+  ",
"    [+}+|+1+2+3+4+5+6+W W 6+5+4+3+7+8+9+0+a+    ",
"    b+c+d+e+f+g+h+i+j+k+k+j+i+h+g+l+m+n+o+p+    ",
"      q+r+s+t+u+v+w+x+y+y+x+w+v+z+A+B+C+D+      ",
"        D+E+F+G+H+I+J+K+L+M+N+e+O+P+Q+R+        ",
"          S+T+U+V+W+X+Y+Z+`+ @.@+@@@#@          ",
"              $@%@&@*@=@-@;@>@,@$@              ",
"                  '@)@!@~@{@]@                  ",
"                                                "};
