/* XPM */
static char * exit_xpm[] = {
"24 24 252 2",
"  	c None",
". 	c #CAAC86",
"+ 	c #ECDBC6",
"@ 	c #E9D1B5",
"# 	c #E2BF96",
"$ 	c #CBAD89",
"% 	c #A77D48",
"& 	c #B8884B",
"* 	c #B9884C",
"= 	c #B38144",
"- 	c #C39E72",
"; 	c #EDD7BF",
"> 	c #DFBD94",
", 	c #D2A065",
"' 	c #D4A267",
") 	c #CCAF8B",
"! 	c #9E7748",
"~ 	c #253141",
"{ 	c #313942",
"] 	c #1C2836",
"^ 	c #DFC6A9",
"/ 	c #D4A56C",
"( 	c #CC9859",
"_ 	c #CE9C60",
": 	c #D2A369",
"< 	c #CDAF89",
"[ 	c #A07849",
"} 	c #373D45",
"| 	c #444446",
"1 	c #323842",
"2 	c #C69458",
"3 	c #CE9A5E",
"4 	c #CD9B61",
"5 	c #CD9B60",
"6 	c #D0A067",
"7 	c #CDAD87",
"8 	c #A17849",
"9 	c #394048",
"0 	c #474748",
"a 	c #474648",
"b 	c #353B45",
"c 	c #C6975E",
"d 	c #CB9B5F",
"e 	c #CA9A5F",
"f 	c #CA995F",
"g 	c #CD9F66",
"h 	c #CCAC85",
"i 	c #A3764B",
"j 	c #3D434B",
"k 	c #49494A",
"l 	c #383F48",
"m 	c #C5955D",
"n 	c #CA9A5E",
"o 	c #C9995E",
"p 	c #C9985D",
"q 	c #CB9D64",
"r 	c #CCAB82",
"s 	c #579300",
"t 	c #2F8000",
"u 	c #AC7253",
"v 	c #3F454D",
"w 	c #4B4B4C",
"x 	c #4B4B4D",
"y 	c #3A414A",
"z 	c #C2945C",
"A 	c #C8975C",
"B 	c #C6965D",
"C 	c #C7965C",
"D 	c #C99B62",
"E 	c #CCAA80",
"F 	c #8BB438",
"G 	c #7CAD07",
"H 	c #6D7628",
"I 	c #484359",
"J 	c #4E4E4F",
"K 	c #3D444D",
"L 	c #C0935B",
"M 	c #C5965B",
"N 	c #C4955B",
"O 	c #C4955A",
"P 	c #C79861",
"Q 	c #CCA87E",
"R 	c #519009",
"S 	c #56930B",
"T 	c #93BA4C",
"U 	c #CADE5E",
"V 	c #7DAF07",
"W 	c #476132",
"X 	c #4F4B56",
"Y 	c #4F4F51",
"Z 	c #404650",
"` 	c #BE915B",
" .	c #C3945B",
"..	c #C1935C",
"+.	c #C29459",
"@.	c #C99B5C",
"#.	c #CAA77D",
"$.	c #95BC51",
"%.	c #C6E03B",
"&.	c #BFDC2D",
"*.	c #BDD940",
"=.	c #97C201",
"-.	c #B6D539",
";.	c #85B61A",
">.	c #4E6633",
",.	c #524E58",
"'.	c #525254",
").	c #525253",
"!.	c #434952",
"~.	c #BC8F59",
"{.	c #C1925A",
"].	c #BB8E5E",
"^.	c #EAB034",
"/.	c #CA9A40",
"(.	c #CAA57D",
"_.	c #89B63C",
":.	c #9ECB0E",
"<.	c #97C700",
"[.	c #98C800",
"}.	c #9AC800",
"|.	c #9AC901",
"1.	c #B5DC1F",
"2.	c #549F00",
"3.	c #544C61",
"4.	c #545556",
"5.	c #454D55",
"6.	c #BA8E58",
"7.	c #BF9158",
"8.	c #B88C5E",
"9.	c #F5B92B",
"0.	c #A37D5A",
"a.	c #CDA679",
"b.	c #83B529",
"c.	c #A2D50A",
"d.	c #9DD200",
"e.	c #9CD000",
"f.	c #9ACE00",
"g.	c #9CD100",
"h.	c #8CC600",
"i.	c #527C1E",
"j.	c #57515F",
"k.	c #565658",
"l.	c #484E58",
"m.	c #B88D57",
"n.	c #BD8F57",
"o.	c #B58B5C",
"p.	c #EFB42D",
"q.	c #B88D59",
"r.	c #C9A375",
"s.	c #649F0D",
"t.	c #74B103",
"u.	c #71AE00",
"v.	c #88C200",
"w.	c #A2DA00",
"x.	c #8ACA00",
"y.	c #547B26",
"z.	c #565261",
"A.	c #58595A",
"B.	c #4A525B",
"C.	c #B68B56",
"D.	c #BB8D56",
"E.	c #B78B57",
"F.	c #C7964D",
"G.	c #CB9A3B",
"H.	c #C8A175",
"I.	c #76B500",
"J.	c #8CD200",
"K.	c #637D1A",
"L.	c #575465",
"M.	c #5B5A5E",
"N.	c #5B5B5D",
"O.	c #4E545E",
"P.	c #B48954",
"Q.	c #B98C54",
"R.	c #B78B54",
"S.	c #B88C55",
"T.	c #A37E4F",
"U.	c #CAA271",
"V.	c #65A700",
"W.	c #347700",
"X.	c #A76753",
"Y.	c #545B64",
"Z.	c #5C5D5F",
"`.	c #505761",
" +	c #B28753",
".+	c #B78953",
"++	c #B68953",
"@+	c #B18753",
"#+	c #C89F6D",
"$+	c #428000",
"%+	c #9A6B47",
"&+	c #575E65",
"*+	c #5F6061",
"=+	c #5F6062",
"-+	c #535B64",
";+	c #B18652",
">+	c #B58852",
",+	c #B38752",
"'+	c #B48852",
")+	c #B48953",
"!+	c #C79D6B",
"~+	c #976D44",
"{+	c #596068",
"]+	c #616264",
"^+	c #565C66",
"/+	c #AE8551",
"(+	c #B28750",
"_+	c #B18650",
":+	c #B08751",
"<+	c #C59C68",
"[+	c #966C44",
"}+	c #5C636C",
"|+	c #636466",
"1+	c #596169",
"2+	c #AC8250",
"3+	c #AF844F",
"4+	c #AE8450",
"5+	c #C59A65",
"6+	c #956A42",
"7+	c #5F666D",
"8+	c #656668",
"9+	c #5C636B",
"0+	c #AB814F",
"a+	c #AE834E",
"b+	c #AD824E",
"c+	c #AD834E",
"d+	c #AC824E",
"e+	c #C49862",
"f+	c #9D6D3D",
"g+	c #646B73",
"h+	c #6A6C6E",
"i+	c #6A6B6E",
"j+	c #616771",
"k+	c #AF844E",
"l+	c #B0844C",
"m+	c #AB824D",
"n+	c #AA814D",
"o+	c #A9814D",
"p+	c #C39660",
"q+	c #5C5C5C",
"r+	c #5B5C5D",
"s+	c #555A5F",
"t+	c #595959",
"u+	c #5A5959",
"v+	c #56585A",
"w+	c #686158",
"x+	c #856F53",
"y+	c #A67E4D",
"z+	c #A37B49",
"A+	c #A57C4A",
"B+	c #947042",
"C+	c #C2935B",
"                                            .   ",
"                                      + @ # $   ",
"            % & * * * * * * * * = - ; > , ' )   ",
"            ! ~ { { { { { { { { ] ^ / ( _ : <   ",
"            [ } | | | | | | | | 1 2 3 4 5 6 7   ",
"            8 9 0 0 0 0 0 0 0 a b c d e f g h   ",
"            i j k k k k k k k k l m n o p q r   ",
"        s t u v w w w w w w w x y z A B C D E   ",
"        F G H I J J J J J J J J K L M N O P Q   ",
"  R S R T U V W X Y Y Y Y Y Y Y Z `  ...+.@.#.  ",
"  $.%.&.*.=.-.;.>.,.'.).'.'.'.'.!.~.{.].^./.(.  ",
"  _.:.<.[.}.|.1.2.3.4.4.4.4.4.4.5.6.7.8.9.0.a.  ",
"  b.c.d.e.f.g.h.i.j.k.k.k.k.k.k.l.m.n.o.p.q.r.  ",
"  s.t.u.v.w.x.y.z.A.A.A.A.A.A.A.B.C.D.E.F.G.H.  ",
"        I.J.K.L.M.N.N.N.N.N.N.N.O.P.Q.R.S.T.U.  ",
"        V.W.X.Y.Z.Z.Z.Z.Z.Z.Z.Z.`. +.+++++@+#+  ",
"        $+  %+&+*+=+=+=+=+=+=+*+-+;+>+,+'+)+!+  ",
"            ~+{+]+]+]+]+]+]+]+]+^+/+(+_+_+:+<+  ",
"            [+}+|+|+|+|+|+|+|+|+1+2+3+3+3+4+5+  ",
"            6+7+8+8+8+8+8+8+8+8+9+0+a+b+c+d+e+  ",
"            f+g+h+h+h+h+h+h+h+i+j+k+l+m+n+o+p+  ",
"  q+q+q+q+r+s+t+u+u+u+u+u+u+u+u+v+w+x+y+z+A+..  ",
"                                          B+C+  ",
"                                                "};
