/* XPM */
static char * help_xpm[] = {
"24 24 307 2",
"  	c None",
". 	c #1C62B1",
"+ 	c #1F65B5",
"@ 	c #1F64B4",
"# 	c #1E64B4",
"$ 	c #1C61B0",
"% 	c #1058AB",
"& 	c #4787CA",
"* 	c #79B1E4",
"= 	c #AAD9FA",
"- 	c #C6F0FF",
"; 	c #C5EEFF",
"> 	c #C2ECFF",
", 	c #BDE8FF",
"' 	c #9DCEF5",
") 	c #6AA4DD",
"! 	c #3C7EC5",
"~ 	c #1359AD",
"{ 	c #276AB9",
"] 	c #93C6F5",
"^ 	c #C7F0FF",
"/ 	c #A8DAF7",
"( 	c #64A5DB",
"_ 	c #3882C7",
": 	c #317DC5",
"< 	c #3783C7",
"[ 	c #61A2DA",
"} 	c #9ED0F5",
"| 	c #AFDEFD",
"1 	c #6FABE2",
"2 	c #2267B6",
"3 	c #3D7EC5",
"4 	c #AEDDFF",
"5 	c #BAE6FA",
"6 	c #5B9ED7",
"7 	c #1D6FBD",
"8 	c #2675C1",
"9 	c #2B7BC3",
"0 	c #2D7BC4",
"a 	c #2C7AC3",
"b 	c #2676C1",
"c 	c #1E70BD",
"d 	c #569BD5",
"e 	c #A7D8F8",
"f 	c #82BAEB",
"g 	c #2F73BD",
"h 	c #2B6EBA",
"i 	c #B0DFFF",
"j 	c #A6D8F3",
"k 	c #3B86C9",
"l 	c #2675C0",
"m 	c #327EC6",
"n 	c #327FC6",
"o 	c #2777C1",
"p 	c #3A85C9",
"q 	c #95C9F1",
"r 	c #81B9EA",
"s 	c #2368B6",
"t 	c #0951A6",
"u 	c #9BCFF8",
"v 	c #A8DAF5",
"w 	c #3280C6",
"x 	c #3783C8",
"y 	c #3682C8",
"z 	c #2D7DC5",
"A 	c #1C73C1",
"B 	c #176FBF",
"C 	c #1C72C1",
"D 	c #2B7CC5",
"E 	c #3681C7",
"F 	c #3380C6",
"G 	c #3A85CA",
"H 	c #91C6EF",
"I 	c #61A1DC",
"J 	c #1057AA",
"K 	c #064DA2",
"L 	c #649EDB",
"M 	c #BAE6FF",
"N 	c #5EA1D8",
"O 	c #3581C7",
"P 	c #3A84C9",
"Q 	c #3180C6",
"R 	c #6DA4D7",
"S 	c #FCFDFE",
"T 	c #FFFFFF",
"U 	c #FBFDFE",
"V 	c #7BADDB",
"W 	c #2F7FC6",
"X 	c #3984C9",
"Y 	c #599DD7",
"Z 	c #90C6F0",
"` 	c #3C7EC6",
" .	c #0F54A7",
"..	c #98CBF6",
"+.	c #A7D7F3",
"@.	c #317EC6",
"#.	c #3F89CC",
"$.	c #3382C9",
"%.	c #89B6DF",
"&.	c #BAD5EC",
"*.	c #B9D4ED",
"=.	c #97BFE3",
"-.	c #3181C8",
";.	c #3F89CB",
">.	c #3481C7",
",.	c #93C8F0",
"'.	c #5B9CD7",
").	c #3778BF",
"!.	c #B1DFFD",
"~.	c #6AA9DE",
"{.	c #3C85C9",
"].	c #438CCD",
"^.	c #438BCD",
"/.	c #2E7EC7",
"(.	c #ECF3FA",
"_.	c #A9CAE8",
":.	c #3A86CA",
"<.	c #3885C9",
"[.	c #8DB9E1",
"}.	c #FEFEFF",
"|.	c #E7F1F9",
"1.	c #2C7DC6",
"2.	c #448CCD",
"3.	c #3E88CA",
"4.	c #62A4DA",
"5.	c #7FB8E9",
"6.	c #2267B4",
"7.	c #4788CC",
"8.	c #C8F0FF",
"9.	c #428ACC",
"0.	c #468ECF",
"a.	c #488FCF",
"b.	c #478FCF",
"c.	c #418BCE",
"d.	c #5E9DD5",
"e.	c #8AB8E1",
"f.	c #5798D3",
"g.	c #438CCE",
"h.	c #3D89CC",
"i.	c #A2C7E7",
"j.	c #E4EFF8",
"k.	c #3181C9",
"l.	c #448DCD",
"m.	c #9DD0F6",
"n.	c #266EBB",
"o.	c #4787CD",
"p.	c #3985C9",
"q.	c #4B92D0",
"r.	c #4C93D0",
"s.	c #4C92D0",
"t.	c #468FCF",
"u.	c #418CCE",
"v.	c #3685CB",
"w.	c #AACBE8",
"x.	c #90BCE2",
"y.	c #3F8BCE",
"z.	c #4B92D1",
"A.	c #3F8ACB",
"B.	c #9FD0F7",
"C.	c #246CBA",
"D.	c #4484CB",
"E.	c #C5EDFF",
"F.	c #408ACC",
"G.	c #4F96D2",
"H.	c #4F96D3",
"I.	c #3C8ACD",
"J.	c #C5DCF1",
"K.	c #8BBAE2",
"L.	c #458FD1",
"M.	c #4E95D3",
"N.	c #4F95D3",
"O.	c #458ECE",
"P.	c #9BCEF6",
"Q.	c #216AB9",
"R.	c #4183C9",
"S.	c #C1EBFF",
"T.	c #478ECE",
"U.	c #5498D4",
"V.	c #5598D4",
"W.	c #5298D4",
"X.	c #5F9FD7",
"Y.	c #F1F7FC",
"Z.	c #8CBBE2",
"`.	c #4891D1",
" +	c #5497D4",
".+	c #5599D4",
"++	c #99CBF4",
"@+	c #1F68B7",
"#+	c #3779C1",
"$+	c #B0DEFC",
"%+	c #63A5DA",
"&+	c #569AD5",
"*+	c #599CD6",
"=+	c #589CD6",
"-+	c #569BD6",
";+	c #74ADDD",
">+	c #F9FBFD",
",+	c #579BD5",
"'+	c #62A3DA",
")+	c #83BBEA",
"!+	c #1B63B3",
"~+	c #2360A4",
"{+	c #89C0EE",
"]+	c #8FC6EC",
"^+	c #559AD5",
"/+	c #5C9FD8",
"(+	c #5CA0D8",
"_+	c #5DA0D8",
":+	c #5B9FD8",
"<+	c #539AD5",
"[+	c #4E97D5",
"}+	c #4D97D5",
"|+	c #5299D5",
"1+	c #589CD5",
"2+	c #82BBEA",
"3+	c #5395D4",
"4+	c #16569F",
"5+	c #5E9DDA",
"6+	c #AFDEFC",
"7+	c #60A2D9",
"8+	c #61A2D9",
"9+	c #5DA0D9",
"0+	c #87B9E3",
"a+	c #92C6F1",
"b+	c #246FBC",
"c+	c #286DBB",
"d+	c #84BCEC",
"e+	c #91C7EF",
"f+	c #61A3DA",
"g+	c #65A5DB",
"h+	c #65A6DC",
"i+	c #5FA2DA",
"j+	c #AFD1ED",
"k+	c #65A5DC",
"l+	c #63A4DB",
"m+	c #84BDEB",
"n+	c #4B90D1",
"o+	c #1962B4",
"p+	c #104D92",
"q+	c #3A7EC6",
"r+	c #97CBF3",
"s+	c #83BDE9",
"t+	c #64A4DA",
"u+	c #69A8DD",
"v+	c #6AA9DD",
"w+	c #66A6DC",
"x+	c #8FBEE5",
"y+	c #69A9DD",
"z+	c #66A6DB",
"A+	c #7BB7E7",
"B+	c #6DAAE1",
"C+	c #1E68B8",
"D+	c #154F95",
"E+	c #165BAB",
"F+	c #4688CC",
"G+	c #9ED1F5",
"H+	c #88BFEB",
"I+	c #6CACDF",
"J+	c #66A8DE",
"K+	c #59A0DB",
"L+	c #6DACDF",
"M+	c #6EADDF",
"N+	c #80BAE9",
"O+	c #7FB7E9",
"P+	c #1F6AB9",
"Q+	c #185CAB",
"R+	c #1A5DAC",
"S+	c #367BC5",
"T+	c #7CB5E7",
"U+	c #94C9F1",
"V+	c #78B4E4",
"W+	c #6DACDE",
"X+	c #6EADDE",
"Y+	c #6FAEDF",
"Z+	c #77B4E4",
"`+	c #84BEEA",
" @	c #87BFEC",
".@	c #599BD8",
"+@	c #1A65B7",
"@@	c #154F94",
"#@	c #2067B7",
"$@	c #488DCF",
"%@	c #69A7DF",
"&@	c #8DC3EE",
"*@	c #A3D4F8",
"=@	c #A2D3F8",
"-@	c #A1D2F8",
";@	c #9FD1F7",
">@	c #82BBEB",
",@	c #5496D4",
"'@	c #2B75C1",
")@	c #1961B4",
"!@	c #1357A8",
"~@	c #1E62B0",
"{@	c #256DBA",
"]@	c #2772BF",
"^@	c #236FBC",
"/@	c #1F6CBA",
"(@	c #1D6AB9",
"_@	c #1964B5",
":@	c #185EAD",
"<@	c #175AA9",
"[@	c #1455A4",
"}@	c #145AAD",
"|@	c #155AAD",
"1@	c #165BAF",
"2@	c #1658A5",
"                  . + @ # + $                   ",
"            % & * = - ; > , ' ) ! ~             ",
"          { ] ^ / ( _ : : < [ } | 1 2           ",
"        3 4 5 6 7 8 9 0 0 a b c d e f g         ",
"      h i j k l m m n n n n m m o p q r s       ",
"    t u v p w x y z A B B C D E x F G H I J     ",
"  K L M N O k P Q R S T T U V W X k y Y Z `  .  ",
"    ..+.@.#.#.$.%.T T &.*.S T =.-.#.;.>.,.'.    ",
"  ).!.~.{.].^./.(.T _.:.<.[.}.|.1.^.2.3.4.5.6.  ",
"  7.8.9.0.a.b.c.d.e.f.g.h.i.T j.k.b.a.0.l.m.n.  ",
"  o.^ p.q.r.r.s.t.u.t.v.w.T T x.y.q.r.z.A.B.C.  ",
"  D.E.F.G.H.H.H.H.H.I.J.T T K.L.M.H.H.N.O.P.Q.  ",
"  R.S.T.U.V.V.V.V.W.X.Y.S Z.`. +.+V.V.U.s.++@+  ",
"  #+$+%+&+*+=+=+*+-+;+T >+*+,+*+=+=+*+,+'+)+!+  ",
"  ~+{+]+^+/+(+(+_+:+<+[+}+|+/+(+(+(+(+1+2+3+4+  ",
"    5+6+7+7+8+7+8+9+0+T T 0+9+8+7+8+7+'+a+b+    ",
"    c+d+e+f+g+h+h+i+j+T T j+i+h+k+h+l+m+n+o+    ",
"    p+q+r+s+t+u+v+w+x+T T x+w+v+y+z+A+B+C+D+    ",
"      E+F+G+H+I+I+I+J+K+K+J+L+L+M+N+O+P+Q+      ",
"        R+S+T+U+H+V+M+W+X+Y+Z+`+ @.@+@Q+        ",
"          @@#@$@%@&@*@=@-@;@>@,@'@)@@@          ",
"              !@~@{@]@^@/@(@_@:@<@              ",
"                  [@}@}@|@1@2@                  ",
"                                                "};
