/* XPM */
static char * make_fw_xpm[] = {
"24 24 86 1",
" 	c None",
".	c #8EB549",
"+	c #A2B912",
"@	c #9BB500",
"#	c #9CB500",
"$	c #8DB546",
"%	c #A3BC11",
"&	c #9BB800",
"*	c #9CB800",
"=	c #8CB443",
"-	c #A3BD11",
";	c #9BB900",
">	c #9CB900",
",	c #8BB440",
"'	c #A2BF10",
")	c #9BBB00",
"!	c #9CBB00",
"~	c #8AB43C",
"{	c #A1C00F",
"]	c #9ABD00",
"^	c #9BBC00",
"/	c #88B439",
"(	c #A1C30E",
"_	c #9ABF00",
":	c #9BBF00",
"<	c #87B336",
"[	c #A0C40D",
"}	c #9BC000",
"|	c #86B333",
"1	c #A0C50D",
"2	c #9BC200",
"3	c #000000",
"4	c #85B330",
"5	c #A0C70C",
"6	c #9BC400",
"7	c #84B32D",
"8	c #A1C90B",
"9	c #9BC500",
"0	c #82B329",
"a	c #A0CB0A",
"b	c #9BC700",
"c	c #81B327",
"d	c #9FCC0A",
"e	c #9AC900",
"f	c #80B323",
"g	c #9FCE09",
"h	c #9ACA00",
"i	c #7FB220",
"j	c #9FD008",
"k	c #9ACD00",
"l	c #7DB21D",
"m	c #9FD107",
"n	c #9ACE00",
"o	c #529103",
"p	c #549305",
"q	c #509005",
"r	c #80B51C",
"s	c #9ED306",
"t	c #9AD000",
"u	c #539305",
"v	c #539403",
"w	c #659D0D",
"x	c #BCE82B",
"y	c #ACDE15",
"z	c #A6D913",
"A	c #9AD201",
"B	c #9AD200",
"C	c #BCE92B",
"D	c #66A00D",
"E	c #498902",
"F	c #B9E921",
"G	c #98D300",
"H	c #9AD300",
"I	c #A9DF13",
"J	c #9BD700",
"K	c #9AD500",
"L	c #579207",
"M	c #A5E00C",
"N	c #99D700",
"O	c #99D600",
"P	c #4A8902",
"Q	c #B0EC0B",
"R	c #99DA00",
"S	c #4A8900",
"T	c #A7E706",
"U	c #346900",
"    .+@#@+.             ",
"    $%&*&%$             ",
"    =-;>;-=             ",
"    ,')!)',             ",
"    ~{]^]{~             ",
"    /(_:_(/             ",
"    <[}}}[<             ",
"    |12221| 3333 3  3  3",
"    4566654 3    3  3  3",
"    7899987 3     3 3 3 ",
"    0abbba0 3333  3 3 3 ",
"    cdeeedc 3     33333 ",
"    fghhhgf 3      3 3  ",
"    ijkkkji 3      3 3  ",
"    lmnnnml             ",
" opqrstttsrquv          ",
" wxyzABBBAzyCD          ",
"  EFGHHHHHGFE           ",
"   EIJKKKJIE            ",
"    LMNONML             ",
"     PQRQP              ",
"      STS               ",
"       U                ",
"                        "};
