/* XPM */
static char * play_xpm[] = {
"24 24 249 2",
"  	c None",
". 	c #4A88BA",
"+ 	c #508DBE",
"@ 	c #4F8CBD",
"# 	c #387DB4",
"$ 	c #85AFD1",
"% 	c #C2D7E7",
"& 	c #DEEDF9",
"* 	c #EBF7FF",
"= 	c #E8F6FF",
"- 	c #C1D7E7",
"; 	c #85AED1",
"> 	c #397DB5",
", 	c #558FC0",
"' 	c #E8F2F9",
") 	c #E3F2FC",
"! 	c #B1D8F5",
"~ 	c #A8D4F4",
"{ 	c #A5D2F3",
"] 	c #E5F0F8",
"^ 	c #548FBF",
"/ 	c #72A4CB",
"( 	c #FAFDFF",
"_ 	c #C9E5FA",
": 	c #A1D0F3",
"< 	c #A7D3F4",
"[ 	c #A9D4F4",
"} 	c #AAD4F4",
"| 	c #F9FDFE",
"1 	c #6FA1C9",
"2 	c #5C95C2",
"3 	c #EAF6FC",
"4 	c #BADDF8",
"5 	c #A5D3F4",
"6 	c #ACD6F5",
"7 	c #ACD6F4",
"8 	c #E7F3FA",
"9 	c #5993C1",
"0 	c #3279B1",
"a 	c #E6F3FC",
"b 	c #C6E4FA",
"c 	c #AFD8F5",
"d 	c #B1DAF6",
"e 	c #BCE2FC",
"f 	c #B2DBF7",
"g 	c #C7E5FA",
"h 	c #E1EFF9",
"i 	c #3076B0",
"j 	c #2C72AB",
"k 	c #A4C4E0",
"l 	c #E2F3FF",
"m 	c #ACD7F5",
"n 	c #B1D9F6",
"o 	c #B2DAF7",
"p 	c #ADD6F4",
"q 	c #3C7EB4",
"r 	c #9AC8EA",
"s 	c #B8DEFB",
"t 	c #B2DAF6",
"u 	c #E3F4FF",
"v 	c #9BBFDC",
"w 	c #2D73AC",
"x 	c #E4F2FA",
"y 	c #B6DDF7",
"z 	c #B4DBF6",
"A 	c #B5DCF6",
"B 	c #B5DBF6",
"C 	c #ACD5F2",
"D 	c #73A4CA",
"E 	c #7BA9CC",
"F 	c #7BAFD8",
"G 	c #C5E7FE",
"H 	c #B7DDF7",
"I 	c #72A2C9",
"J 	c #D9EEFC",
"K 	c #B3DBF6",
"L 	c #B8DDF7",
"M 	c #B9DEF7",
"N 	c #B0D7F3",
"O 	c #6DA0C8",
"P 	c #4994C7",
"Q 	c #9AC0DB",
"R 	c #7EB1D9",
"S 	c #C0E2FB",
"T 	c #B8DDF8",
"U 	c #B3DAF6",
"V 	c #D8EDFB",
"W 	c #6C9EC6",
"X 	c #8EB8D8",
"Y 	c #D0EAFC",
"Z 	c #B8DEF7",
"` 	c #BADFF7",
" .	c #BCE1F8",
"..	c #B3D9F4",
"+.	c #699EC8",
"@.	c #4D98CA",
"#.	c #4794C9",
"$.	c #6EA2CA",
"%.	c #A2CCEA",
"&.	c #C2E5FB",
"*.	c #BBE0F7",
"=.	c #B8DFF7",
"-.	c #CFEAFB",
";.	c #87B2D5",
">.	c #90BAD8",
",.	c #CDEAFC",
"'.	c #BCDFF8",
").	c #BDE1F8",
"!.	c #BDE0F8",
"~.	c #BEE2F9",
"{.	c #B5DAF4",
"].	c #639CC8",
"^.	c #56A1D1",
"/.	c #4C9ACF",
"(.	c #6BADD9",
"_.	c #659ECA",
":.	c #86B7DC",
"<.	c #C5E6FC",
"[.	c #BCE0F8",
"}.	c #CCEAFC",
"|.	c #8DB7D7",
"1.	c #90B9D8",
"2.	c #CCEAFB",
"3.	c #BFE2F9",
"4.	c #C1E3F9",
"5.	c #C0E3F9",
"6.	c #C2E4F9",
"7.	c #BADDF5",
"8.	c #5E9AC7",
"9.	c #5CA6D9",
"0.	c #56A2D6",
"a.	c #54A1D6",
"b.	c #A8D5F1",
"c.	c #2F75AE",
"d.	c #D0EEFF",
"e.	c #91BAD8",
"f.	c #D0EBFD",
"g.	c #C3E4F9",
"h.	c #C5E6FA",
"i.	c #BCDFF5",
"j.	c #5998C8",
"k.	c #64AEDF",
"l.	c #5EAADD",
"m.	c #7EBCE5",
"n.	c #3D7FB5",
"o.	c #E0F9FF",
"p.	c #C4E5F9",
"q.	c #CFEAFD",
"r.	c #84B1D5",
"s.	c #81AFD3",
"t.	c #D6F0FE",
"u.	c #C4E6FA",
"v.	c #C6E6FA",
"w.	c #C7E7FB",
"x.	c #BFE0F5",
"y.	c #5697CA",
"z.	c #68B3E5",
"A.	c #75BAE8",
"B.	c #629CC8",
"C.	c #CFEDFD",
"D.	c #C5E5FA",
"E.	c #D5EEFD",
"F.	c #75A6CD",
"G.	c #5889B1",
"H.	c #DBF0FC",
"I.	c #C9E8FB",
"J.	c #CAE9FC",
"K.	c #C2E2F5",
"L.	c #5196CC",
"M.	c #88CCF8",
"N.	c #D3EFFE",
"O.	c #CBEAFD",
"P.	c #C6E8FB",
"Q.	c #DAEEFA",
"R.	c #497EAA",
"S.	c #CFE8F4",
"T.	c #D3EFFC",
"U.	c #CBEAFB",
"V.	c #CDEBFC",
"W.	c #C3E4F5",
"X.	c #4D97CF",
"Y.	c #3D7FB6",
"Z.	c #EAFFFF",
"`.	c #CDEBFB",
" +	c #D6F0FD",
".+	c #BEDBEE",
"++	c #6CA2CD",
"@+	c #ECFDFF",
"#+	c #D0ECFD",
"$+	c #CFEBFC",
"%+	c #D0ECFC",
"&+	c #86B4D7",
"*+	c #D7F1FD",
"=+	c #D0EDFD",
"-+	c #ECFEFF",
";+	c #528FC0",
">+	c #316A99",
",+	c #9AC4E2",
"'+	c #E7FBFF",
")+	c #D2EEFC",
"!+	c #D5F1FD",
"~+	c #D2EFFC",
"{+	c #ECFFFF",
"]+	c #80B1D5",
"^+	c #316B9A",
"/+	c #3F7FB3",
"(+	c #C1DEF0",
"_+	c #DEF6FF",
":+	c #D5EFFD",
"<+	c #D4EFFD",
"[+	c #D5F0FD",
"}+	c #E1F7FF",
"|+	c #AACEE5",
"1+	c #3F7EB2",
"2+	c #4D89B9",
"3+	c #ABCFE6",
"4+	c #EBFFFF",
"5+	c #DDF4FF",
"6+	c #D8F1FE",
"7+	c #D8F1FD",
"8+	c #D8F2FE",
"9+	c #DFF6FF",
"0+	c #E9FCFF",
"a+	c #9DC6E0",
"b+	c #4280B4",
"c+	c #376E9B",
"d+	c #6AA1CC",
"e+	c #DDF4FB",
"f+	c #EEFFFF",
"g+	c #E2F8FF",
"h+	c #DDF5FF",
"i+	c #DCF4FF",
"j+	c #E4F8FF",
"k+	c #CEE8F6",
"l+	c #5E99C6",
"m+	c #366C9B",
"n+	c #3678AF",
"o+	c #6DA0C7",
"p+	c #B4D6EB",
"q+	c #D5EDF6",
"r+	c #D7EFF5",
"s+	c #D6EDF6",
"t+	c #AACFE7",
"u+	c #6498C3",
"v+	c #3175AC",
"w+	c #266AA4",
"x+	c #226DAC",
"y+	c #206CAB",
"z+	c #286CA4",
"                  . + @ @ + .                   ",
"            # $ % & * = = * & - ; >             ",
"          , ' ) ! ~ { { { { ~ ! ) ] ^           ",
"        / ( _ : < [ } } } } [ < : _ | 1         ",
"      2 3 4 5 6 6 7 6 7 6 7 7 7 6 5 4 8 9       ",
"    0 a b 6 c c c d e f c c c c c c 6 g h i     ",
"  j k l m n n n o p q r s t n n n n n m u v w   ",
"    x y z A A B y C D E F G A B A A A z H h     ",
"  I J K L L L L M N O P Q R S T L L L L U V W   ",
"  X Y Z ` ` ` `  ...+.@.#.$.%.&.*.` ` ` =.-.;.  ",
"  >.,.'.).!.!.!.~.{.].^./.(._.:.<.!.!.!.[.}.|.  ",
"  1.2.3.4.4.4.5.6.7.8.9.0.a.b.c.d.4.4.4.3.Y e.  ",
"  X f.6.g.g.g.g.h.i.j.k.l.m.n.o.p.g.g.g.6.q.r.  ",
"  s.t.u.v.v.v.v.w.x.y.z.A.B.C.w.v.v.v.v.D.E.F.  ",
"  G.H.w.I.I.I.I.J.K.L.M.q N.O.I.I.I.I.I.P.Q.R.  ",
"    S.T.U.U.U.U.V.W.X.Y.Z.`.U.U.U.U.U.U. +.+    ",
"    ++@+#+$+$+$+%+%+&+*+=+$+$+$+$+$+$+#+-+;+    ",
"    >+,+'+)+)+)+)+)+!+T.)+)+)+)+)+)+~+{+]+^+    ",
"      /+(+_+:+<+<+<+<+<+<+<+<+<+<+[+}+|+1+      ",
"        2+3+4+5+6+7+*+*+*+*+*+8+9+0+a+b+        ",
"          c+d+e+f+g+h+i+i+h+j+f+k+l+m+          ",
"              n+o+p+q+r+r+s+t+u+v+              ",
"                  w+x+y+y+x+z+                  ",
"                                                "};
