/* XPM */
static char * pw_g_xpm[] = {
"24 24 149 2",
"  	c None",
". 	c #329A9A",
"+ 	c #319494",
"@ 	c #309292",
"# 	c #309696",
"$ 	c #4FC1C1",
"% 	c #4DC0C0",
"& 	c #7BD3D3",
"* 	c #2F9191",
"= 	c #4DBFBF",
"- 	c #38AFAF",
"; 	c #85DBDB",
"> 	c #349090",
", 	c #2F8E8E",
"' 	c #2D8B8B",
") 	c #4BBEBE",
"! 	c #39ADAD",
"~ 	c #2E8C8C",
"{ 	c #97DCDC",
"] 	c #3CB0B0",
"^ 	c #2E8B8B",
"/ 	c #2D8A8A",
"( 	c #4CBEBE",
"_ 	c #36A7A7",
": 	c #2F9090",
"< 	c #96D9D9",
"[ 	c #3B9C9C",
"} 	c #40B4B4",
"| 	c #47BDBD",
"1 	c #2D8989",
"2 	c #35A2A2",
"3 	c #40BABA",
"4 	c #39AEAE",
"5 	c #3B9B9B",
"6 	c #61C7C7",
"7 	c #309A9A",
"8 	c #43C3C3",
"9 	c #339A9A",
"0 	c #2A8282",
"a 	c #2B8282",
"b 	c #339B9B",
"c 	c #2C8484",
"d 	c #339999",
"e 	c #3FBDBD",
"f 	c #2E9494",
"g 	c #B3E9E9",
"h 	c #217A7A",
"i 	c #39A7A7",
"j 	c #2D8888",
"k 	c #52AFAF",
"l 	c #297D7D",
"m 	c #46BDBD",
"n 	c #309494",
"o 	c #2A7F7F",
"p 	c #37A6A6",
"q 	c #39ACAC",
"r 	c #217979",
"s 	c #5FCFCF",
"t 	c #44C0C0",
"u 	c #319292",
"v 	c #2D8383",
"w 	c #277878",
"x 	c #2C8989",
"y 	c #297B7B",
"z 	c #309191",
"A 	c #3BB2B2",
"B 	c #287E7E",
"C 	c #3AADAD",
"D 	c #297878",
"E 	c #43B7B7",
"F 	c #2C8585",
"G 	c #378080",
"H 	c #B8EFEF",
"I 	c #246C6C",
"J 	c #42BBBB",
"K 	c #3FB5B5",
"L 	c #277777",
"M 	c #277575",
"N 	c #297777",
"O 	c #41AFAF",
"P 	c #256F6F",
"Q 	c #226B6B",
"R 	c #246D6D",
"S 	c #226868",
"T 	c #37A5A5",
"U 	c #267474",
"V 	c #2A7E7E",
"W 	c #257171",
"X 	c #3CAEAE",
"Y 	c #2C6F6F",
"Z 	c #226666",
"` 	c #359F9F",
" .	c #246E6E",
"..	c #39B2B2",
"+.	c #236B6B",
"@.	c #3AAFAF",
"#.	c #256D6D",
"$.	c #2A7272",
"%.	c #216767",
"&.	c #6BD4D4",
"*.	c #1D5F5F",
"=.	c #329898",
"-.	c #206565",
";.	c #77C2C2",
">.	c #1C5C5C",
",.	c #237E7E",
"'.	c #287A7A",
").	c #287979",
"!.	c #1F5F5F",
"~.	c #237373",
"{.	c #37BCBC",
"].	c #205F5F",
"^.	c #236969",
"/.	c #72C5C5",
"(.	c #195656",
"_.	c #1F6060",
":.	c #1D5858",
"<.	c #206363",
"[.	c #45A2A2",
"}.	c #83DEDE",
"|.	c #1F5D5D",
"1.	c #216565",
"2.	c #3D9A9A",
"3.	c #1E5E5E",
"4.	c #226767",
"5.	c #1F5B5B",
"6.	c #1D5656",
"7.	c #185050",
"8.	c #1F5E5E",
"9.	c #1E5B5B",
"0.	c #9FDEDE",
"a.	c #2D8585",
"b.	c #1D5555",
"c.	c #206161",
"d.	c #1F6161",
"e.	c #1E5D5D",
"f.	c #1B5151",
"g.	c #358B8B",
"h.	c #BBE7E7",
"i.	c #31A5A5",
"j.	c #1A4F4F",
"k.	c #1D5959",
"l.	c #1F5C5C",
"m.	c #236A6A",
"n.	c #216363",
"o.	c #1C5555",
"p.	c #38A8A8",
"q.	c #206262",
"r.	c #1E5C5C",
"                                                ",
"                      . .                       ",
"                    + @ @ +                     ",
"                    # $ % #                     ",
"            &       * = - @       &             ",
"          ; > ,     ' ) ! ~     , > ;           ",
"        { * ] ^     / ( _ ^     ^ ! : {         ",
"      < [ } | 1     1 ) 2 ^     1 3 4 5 <       ",
"      6 7 8 9 0     a | b c     0 d e f 6       ",
"    g h } i j k     l m n o     k j p q r g     ",
"    s o t u v ;     w | x y     ; v z A B s     ",
"    C D E F G H     I J K I     H G c q L C     ",
"    M N O P Q       R S S R       Q P T U M     ",
"    V W X I Y         Z Z         Y I `  .V     ",
"    ..+.@.#.$.                    $.R b %...    ",
"    &.*.=. .-.;.                ;.-.+.o >.&.    ",
"      ,.'.).!.~.{.            {.~.].R ^.,.      ",
"      /.(.V _.:.<.[.}.    }.[.<.:.|.1.(./.      ",
"        2.3.4.<.5.6.7.:.:.7.6.5.<.8.9.2.        ",
"        0.a.b.c.1.d.9.8.e.9._.<.!.f.g.0.        ",
"          h.i.j.k.l.1.4.m.n.8.o.j.p.            ",
"              q |.q.9.:.:.9.q.|.q               ",
"                  p.w r.r.w p.                  ",
"                                                "};
