/* XPM */
static char * pw_r_xpm[] = {
"24 24 167 2",
"  	c None",
". 	c #E14646",
"+ 	c #E14444",
"@ 	c #E14242",
"# 	c #E14343",
"$ 	c #E87070",
"% 	c #E76E6E",
"& 	c #ED9797",
"* 	c #E04141",
"= 	c #E76F6F",
"- 	c #E45959",
"; 	c #E04242",
"> 	c #F0A3A3",
", 	c #E03D3D",
"' 	c #E03B3B",
") 	c #E76C6C",
"! 	c #E35757",
"~ 	c #E03C3C",
"{ 	c #F2ADAD",
"] 	c #E03F3F",
"^ 	c #E45A5A",
"/ 	c #E03A3A",
"( 	c #E25151",
"_ 	c #F1ABAB",
": 	c #E24E4E",
"< 	c #E55F5F",
"[ 	c #E76969",
"} 	c #DF3A3A",
"| 	c #E24D4D",
"1 	c #DF3C3C",
"2 	c #E66363",
"3 	c #E45858",
"4 	c #EA7F7F",
"5 	c #E76B6B",
"6 	c #E14848",
"7 	c #DE3434",
"8 	c #DE3535",
"9 	c #E66A6A",
"0 	c #E14747",
"a 	c #DE3737",
"b 	c #E56464",
"c 	c #F6C5C5",
"d 	c #DC2929",
"e 	c #E56060",
"f 	c #E35252",
"g 	c #DF3838",
"h 	c #E76868",
"i 	c #DD2F2F",
"j 	c #E66767",
"k 	c #E04343",
"l 	c #DE3131",
"m 	c #E35151",
"n 	c #E45757",
"o 	c #DC2828",
"p 	c #EB8383",
"q 	c #E66969",
"r 	c #DF3636",
"s 	c #F0A1A1",
"t 	c #DD2B2B",
"u 	c #DF3939",
"v 	c #DD2E2E",
"w 	c #E45C5C",
"x 	c #DE3030",
"y 	c #DF3B3B",
"z 	c #F7CCCC",
"A 	c #DC2424",
"B 	c #E66565",
"C 	c #DF3535",
"D 	c #DD2C2C",
"E 	c #DD2929",
"F 	c #DB2C2C",
"G 	c #E55D5D",
"H 	c #DB2525",
"I 	c #D92121",
"J 	c #D92323",
"K 	c #D81F1F",
"L 	c #DB2626",
"M 	c #DA2929",
"N 	c #DF3131",
"O 	c #D22929",
"P 	c #E55858",
"Q 	c #D52323",
"R 	c #D22C2C",
"S 	c #D12121",
"T 	c #E34B4B",
"U 	c #D22727",
"V 	c #E55A5A",
"W 	c #CA2626",
"X 	c #E65858",
"Y 	c #D62424",
"Z 	c #CC2E2E",
"` 	c #E34747",
" .	c #CA2323",
"..	c #EE8D8D",
"+.	c #C41C1C",
"@.	c #E34545",
"#.	c #D42626",
"$.	c #C62121",
"%.	c #EC8989",
"&.	c #D32424",
"*.	c #DF3333",
"=.	c #C41A1A",
"-.	c #D03030",
";.	c #D63030",
">.	c #DF2C2C",
",.	c #C01E1E",
"'.	c #C72B2B",
").	c #E65E5E",
"!.	c #C11E1E",
"~.	c #D02323",
"{.	c #CF3030",
"].	c #E98989",
"^.	c #BF1515",
"/.	c #C21E1E",
"(.	c #B51C1C",
"_.	c #BD2323",
":.	c #E75757",
"<.	c #F2A2A2",
"[.	c #B61C1C",
"}.	c #BD1E1E",
"|.	c #CF2020",
"1.	c #BE1414",
"2.	c #D35252",
"3.	c #C21D1D",
"4.	c #C81F1F",
"5.	c #B61D1D",
"6.	c #B41B1B",
"7.	c #B11515",
"8.	c #B41C1C",
"9.	c #C71F1F",
"0.	c #BF1E1E",
"a.	c #BA1D1D",
"b.	c #D45252",
"c.	c #F6B2B2",
"d.	c #CE3A3A",
"e.	c #B71818",
"f.	c #C51F1F",
"g.	c #CC2020",
"h.	c #C41F1F",
"i.	c #BB1D1D",
"j.	c #BC1E1E",
"k.	c #B91D1D",
"l.	c #C72020",
"m.	c #C11F1F",
"n.	c #B11717",
"o.	c #D24343",
"p.	c #F6B1B1",
"q.	c #F6C8C8",
"r.	c #DA4F4F",
"s.	c #B01515",
"t.	c #B21C1C",
"u.	c #CD2020",
"v.	c #D32121",
"w.	c #D72222",
"x.	c #C92020",
"y.	c #B01B1B",
"z.	c #DC5555",
"A.	c #E95555",
"B.	c #B51F1F",
"C.	c #B72323",
"D.	c #B41E1E",
"E.	c #B11C1C",
"F.	c #B01C1C",
"G.	c #B51E1E",
"H.	c #E75252",
"I.	c #DC2D2D",
"J.	c #BE1D1D",
"                                                ",
"                      . .                       ",
"                    + @ @ +                     ",
"                    # $ % #                     ",
"            &       * = - ;       &             ",
"          > @ ,     ' ) ! ~     , @ >           ",
"        { ] ^ '     / ) ( ~     ' ! ] {         ",
"      _ : < [ }     } ) | 1     } 2 3 : _       ",
"      4 . 5 6 7     8 9 0 a     7 6 b ; 4       ",
"    c d e f g h     i j k l     h g m n o c     ",
"    p l q * r s     t q u v     s r ] w x p     ",
"    ! v 2 r y z     A B e A     z y C n D !     ",
"    E F G H I       J K K J       I L m M E     ",
"    N O P Q R         S S         R Q T U N     ",
"    V W X Y Z                     Z Y `  .V     ",
"    ..+.@.#.$.%.                %.$.&.*.=...    ",
"      -.;.>.,.'.).            ).'.!.J ~.{.      ",
"      ].^.l /.(._.:.<.    <.:._.[.}.|.1.].      ",
"        2.3.S 4.5.6.7.8.8.7.6.5.9.0.a.b.        ",
"        c.d.e.f.g.h.i.j.k.i.h.l.m.n.o.p.        ",
"          q.r.s.t.j.u.v.w.x.}.y.s.z.            ",
"              A.B.C.D.E.F.G.C.B.A.              ",
"                  H.I.J.J.I.H.                  ",
"                                                "};
