/* XPM */
static char * setting_tools_xpm[] = {
"24 24 252 2",
"  	c None",
". 	c #7E8082",
"+ 	c #909193",
"@ 	c #AFB0B1",
"# 	c #BBBCBD",
"$ 	c #B5B6B7",
"% 	c #828485",
"& 	c #8F9093",
"* 	c #8D8F91",
"= 	c #9FA1A3",
"- 	c #8B8D8F",
"; 	c #858688",
"> 	c #75777A",
", 	c #A0A2A3",
"' 	c #E6E8E8",
") 	c #FFFFFF",
"! 	c #C7C8C9",
"~ 	c #7C7D7E",
"{ 	c #999A9D",
"] 	c #CFD0D2",
"^ 	c #D1D3D4",
"/ 	c #DADCDD",
"( 	c #E5E6E8",
"_ 	c #AFB1B2",
": 	c #717375",
"< 	c #ACAFAF",
"[ 	c #FAFAFB",
"} 	c #E8E9E9",
"| 	c #9C9EA0",
"1 	c #727476",
"2 	c #929296",
"3 	c #E3E4E5",
"4 	c #A8AAAD",
"5 	c #A6A8AB",
"6 	c #97999B",
"7 	c #808385",
"8 	c #87898B",
"9 	c #86888B",
"0 	c #7D7F81",
"a 	c #77797B",
"b 	c #ADAEB1",
"c 	c #9D9FA1",
"d 	c #6B6D6F",
"e 	c #75777B",
"f 	c #D9DBDB",
"g 	c #B0B2B5",
"h 	c #A4A6A9",
"i 	c #ACAEB1",
"j 	c #87898C",
"k 	c #7E8083",
"l 	c #B1B2B4",
"m 	c #F4F4F5",
"n 	c #D3D4D6",
"o 	c #CFD0D1",
"p 	c #DDDEDF",
"q 	c #7D7E7F",
"r 	c #727477",
"s 	c #9D9FA2",
"t 	c #A7A9AC",
"u 	c #B2B4B7",
"v 	c #898B8C",
"w 	c #888A8E",
"x 	c #F6F7F6",
"y 	c #D3D4D4",
"z 	c #C8C9CB",
"A 	c #BEBFC2",
"B 	c #C6C7C9",
"C 	c #EBEBEC",
"D 	c #66696B",
"E 	c #717376",
"F 	c #E0E1E3",
"G 	c #9EA0A4",
"H 	c #ACAEB0",
"I 	c #BABCBE",
"J 	c #888A8D",
"K 	c #7B7D7F",
"L 	c #C1C2C3",
"M 	c #D8D9DB",
"N 	c #C6C8CA",
"O 	c #BEBFC1",
"P 	c #B4B6B8",
"Q 	c #A9ABAE",
"R 	c #AAACAE",
"S 	c #747577",
"T 	c #BCBCBD",
"U 	c #BCBDC0",
"V 	c #B0B2B4",
"W 	c #BEC1C2",
"X 	c #8A8A8D",
"Y 	c #A6A8AA",
"Z 	c #E2E2E3",
"` 	c #C9C9CB",
" .	c #ABACAD",
"..	c #BEC0C2",
"+.	c #B8BABC",
"@.	c #9C9EA2",
"#.	c #8C8D90",
"$.	c #C1C1C2",
"%.	c #9E8D86",
"&.	c #8A8586",
"*.	c #D6D7D8",
"=.	c #CACCCE",
"-.	c #B7B9BB",
";.	c #C1C3C5",
">.	c #A1A2A4",
",.	c #AAACAD",
"'.	c #9A9B9D",
").	c #949697",
"!.	c #DADBDD",
"~.	c #919295",
"{.	c #9B9DA0",
"].	c #848687",
"^.	c #838587",
"/.	c #BDBEC0",
"(.	c #E8DED9",
"_.	c #5299BD",
":.	c #187EAF",
"<.	c #CBCDCF",
"[.	c #D4D1D1",
"}.	c #B5B8B9",
"|.	c #B5B7B9",
"1.	c #D3D3D5",
"2.	c #D6D6D8",
"3.	c #B6B8BA",
"4.	c #818284",
"5.	c #8C8D91",
"6.	c #BCBFC0",
"7.	c #A9ABAD",
"8.	c #707173",
"9.	c #514D4B",
"0.	c #A5A09F",
"a.	c #659CB9",
"b.	c #92CCF4",
"c.	c #60B7EC",
"d.	c #2D93C8",
"e.	c #ACB2B7",
"f.	c #939394",
"g.	c #66686A",
"h.	c #6F7274",
"i.	c #7A7C7E",
"j.	c #6D6F71",
"k.	c #626465",
"l.	c #85878A",
"m.	c #8B8D90",
"n.	c #346E8C",
"o.	c #7DC3EF",
"p.	c #66B9EC",
"q.	c #53AFE6",
"r.	c #40A7E4",
"s.	c #3787B0",
"t.	c #2289BE",
"u.	c #ABDBFC",
"v.	c #65B8EB",
"w.	c #52AFE5",
"x.	c #4CABE5",
"y.	c #3DA5E2",
"z.	c #2391C8",
"A.	c #8A7B76",
"B.	c #3795C6",
"C.	c #ACD9FA",
"D.	c #60B5EA",
"E.	c #51AEE4",
"F.	c #42A6E2",
"G.	c #268ABE",
"H.	c #DBDDDD",
"I.	c #DFDAD6",
"J.	c #747E85",
"K.	c #54A6D3",
"L.	c #97CEF1",
"M.	c #66B8EB",
"N.	c #4DACE6",
"O.	c #43A7E2",
"P.	c #2188BD",
"Q.	c #838F96",
"R.	c #CCBDB8",
"S.	c #93BBCF",
"T.	c #5EAFD8",
"U.	c #3694C5",
"V.	c #439BCE",
"W.	c #B8E1FB",
"X.	c #64B7EA",
"Y.	c #52AEE5",
"Z.	c #43A7E1",
"`.	c #2089BE",
" +	c #6A5A53",
".+	c #5C8EA7",
"++	c #50A7D5",
"@+	c #A6DCFA",
"#+	c #BBE3FD",
"$+	c #3895C6",
"%+	c #499DCB",
"&+	c #BDE3FE",
"*+	c #5DB3E8",
"=+	c #50AEE4",
"-+	c #44A7E2",
";+	c #248DC1",
">+	c #1789C1",
",+	c #B9E8FC",
"'+	c #43A7E3",
")+	c #5CB3E9",
"!+	c #3893C3",
"~+	c #50A2CF",
"{+	c #B0DDFC",
"]+	c #62B6E9",
"^+	c #43A6E1",
"/+	c #238CC0",
"(+	c #13668E",
"_+	c #147CB3",
":+	c #38A1E1",
"<+	c #49AAE4",
"[+	c #64B8EA",
"}+	c #A6D8F7",
"|+	c #58A6D4",
"1+	c #BCE3FE",
"2+	c #228FC5",
"3+	c #145B7E",
"4+	c #1F82B5",
"5+	c #3BA4E3",
"6+	c #0E7DB4",
"7+	c #B6DFF9",
"8+	c #5BB2E8",
"9+	c #4CABE4",
"0+	c #46A8E4",
"a+	c #2992C9",
"b+	c #2085BA",
"c+	c #5EB5E9",
"d+	c #BDE3FD",
"e+	c #2B8EC0",
"f+	c #A6D9FA",
"g+	c #48A9E3",
"h+	c #4DACE5",
"i+	c #47A9E5",
"j+	c #2990C7",
"k+	c #1775A3",
"l+	c #3AA3E2",
"m+	c #69BBED",
"n+	c #4EA0C9",
"o+	c #0973A8",
"p+	c #8AC8E7",
"q+	c #54B2ED",
"r+	c #47A9E6",
"s+	c #268FC4",
"t+	c #1974A1",
"u+	c #3FA7E8",
"v+	c #2E93C8",
"w+	c #17729F",
"x+	c #1075A8",
"y+	c #1681B4",
"z+	c #1984B7",
"A+	c #19709C",
"B+	c #1D86B9",
"C+	c #17719E",
"                . + @ # $ %     & * = - ;       ",
"            > , ' ) ! ~       { ] ^ ^ / ( _     ",
"          : < [ } | 1       2 3 4 5 6 7 8 9 0   ",
"        a b ) / c d       e f g h i j           ",
"      k l m n o p q       r 3 s t u v           ",
"      w x y z A B C D     E F G H I J           ",
"    K L M N O P Q R S       T U V W X           ",
"  Y Z `  ...+.g @.#.$.%.  &.*.=.-.;.-.>.,.'.:   ",
"  ).!.O ~.{.].^.- /.(._.:.<.[.}.|.1.2.M 3.4.    ",
"    5.6.7.8.    9.0.a.b.c.d.e.f.g.h.i.j.k.      ",
"      l.m.        n.o.p.q.r.s.                  ",
"                t.u.v.w.x.y.z.A.                ",
"              B.C.D.E.x.F.G.H.I.J.              ",
"            K.L.M.E.N.O.P.Q.R.S.T.U.            ",
"          V.W.X.Y.x.Z.`.   +.+++@+#+$+          ",
"        %+&+*+=+x.-+;+      >+,+'+)+#+!+        ",
"      ~+{+]+=+N.^+/+(+        _+:+<+[+}+!+      ",
"    |+1+]+Y.x.-+2+3+            4+5+<+[+#+$+    ",
"  6+7+8+=+9+0+a+3+                b+5+<+c+d+!+  ",
"  e+f+g+h+i+j+k+                    4+l+<+m+n+  ",
"  o+p+q+r+s+t+                        4+u+v+w+  ",
"    x+y+z+A+                            B+C+    ",
"                                                ",
"                                                "};
