/* XPM */
static char * stop_xpm[] = {
"24 24 221 2",
"  	c None",
". 	c #4A88BA",
"+ 	c #508DBE",
"@ 	c #4F8CBD",
"# 	c #387DB4",
"$ 	c #85AFD1",
"% 	c #C2D7E7",
"& 	c #DEEDF9",
"* 	c #EBF7FF",
"= 	c #E8F6FF",
"- 	c #C1D7E7",
"; 	c #85AED1",
"> 	c #397DB5",
", 	c #558FC0",
"' 	c #E8F2F9",
") 	c #E3F2FC",
"! 	c #B1D8F5",
"~ 	c #A8D4F4",
"{ 	c #A5D2F3",
"] 	c #E5F0F8",
"^ 	c #548FBF",
"/ 	c #72A4CB",
"( 	c #FAFDFF",
"_ 	c #C9E5FA",
": 	c #A1D0F3",
"< 	c #A7D3F4",
"[ 	c #A9D4F4",
"} 	c #AAD4F4",
"| 	c #F9FDFE",
"1 	c #6FA1C9",
"2 	c #5C95C2",
"3 	c #EAF6FC",
"4 	c #BADDF8",
"5 	c #A5D3F4",
"6 	c #ACD6F5",
"7 	c #ACD6F4",
"8 	c #E7F3FA",
"9 	c #5993C1",
"0 	c #3279B1",
"a 	c #E6F3FC",
"b 	c #C6E4FA",
"c 	c #AFD8F5",
"d 	c #B0D8F6",
"e 	c #B0D9F6",
"f 	c #C7E5FA",
"g 	c #E1EFF9",
"h 	c #3076B0",
"i 	c #2C72AB",
"j 	c #A4C4E0",
"k 	c #E2F3FF",
"l 	c #ACD7F5",
"m 	c #B1D9F6",
"n 	c #B2DAF6",
"o 	c #A9D3F2",
"p 	c #A9D4F3",
"q 	c #E3F4FF",
"r 	c #9BBFDC",
"s 	c #2D73AC",
"t 	c #E4F2FA",
"u 	c #B6DDF7",
"v 	c #B4DBF6",
"w 	c #B5DCF6",
"x 	c #B9DEF8",
"y 	c #7FB3DA",
"z 	c #6A9EC7",
"A 	c #7AA8CD",
"B 	c #B7DDF7",
"C 	c #72A2C9",
"D 	c #D9EEFC",
"E 	c #B3DBF6",
"F 	c #B8DDF7",
"G 	c #BCE1F9",
"H 	c #71A8D3",
"I 	c #B1D0E6",
"J 	c #4190C5",
"K 	c #4D96C9",
"L 	c #B3DAF6",
"M 	c #D8EDFB",
"N 	c #6C9EC6",
"O 	c #8EB8D8",
"P 	c #D0EAFC",
"Q 	c #B8DEF7",
"R 	c #BADFF7",
"S 	c #BFE3FA",
"T 	c #75AAD4",
"U 	c #A3C9E4",
"V 	c #3F91C9",
"W 	c #4C98CC",
"X 	c #B8DFF7",
"Y 	c #CFEAFB",
"Z 	c #87B2D5",
"` 	c #90BAD8",
" .	c #CDEAFC",
"..	c #BCDFF8",
"+.	c #BDE1F8",
"@.	c #BDE0F8",
"#.	c #C2E5FB",
"$.	c #77ABD4",
"%.	c #98C4E3",
"&.	c #4B9BD1",
"*.	c #55A0D4",
"=.	c #BCE0F8",
"-.	c #CCEAFC",
";.	c #8DB7D7",
">.	c #90B9D8",
",.	c #CCEAFB",
"'.	c #BFE2F9",
").	c #C1E3F9",
"!.	c #C0E3F9",
"~.	c #C6E7FB",
"{.	c #7BADD4",
"].	c #8CBFE3",
"^.	c #56A3D9",
"/.	c #5DA7DA",
"(.	c #91BAD8",
"_.	c #D0EBFD",
":.	c #C2E4F9",
"<.	c #C3E4F9",
"[.	c #C8E8FC",
"}.	c #7DAED4",
"|.	c #84BCE4",
"1.	c #60ADE0",
"2.	c #65AFE1",
"3.	c #CFEAFD",
"4.	c #84B1D5",
"5.	c #81AFD3",
"6.	c #D6F0FE",
"7.	c #C4E6FA",
"8.	c #C6E6FA",
"9.	c #CBEAFC",
"0.	c #7FAFD3",
"a.	c #7CBCE8",
"b.	c #6BB6E8",
"c.	c #6EB7E8",
"d.	c #6DB7E8",
"e.	c #C5E5FA",
"f.	c #D5EEFD",
"g.	c #75A6CD",
"h.	c #5889B1",
"i.	c #DBF0FC",
"j.	c #C7E7FB",
"k.	c #C9E8FB",
"l.	c #CEEBFD",
"m.	c #7DADD1",
"n.	c #7AC1F1",
"o.	c #7BC7F7",
"p.	c #7CC7F7",
"q.	c #C6E8FB",
"r.	c #DAEEFA",
"s.	c #497EAA",
"t.	c #CFE8F4",
"u.	c #D3EFFC",
"v.	c #CBEAFB",
"w.	c #CEECFC",
"x.	c #ADD3EC",
"y.	c #4785B7",
"z.	c #4482B5",
"A.	c #D6F0FD",
"B.	c #BEDBEE",
"C.	c #6CA2CD",
"D.	c #ECFDFF",
"E.	c #D0ECFD",
"F.	c #CFEBFC",
"G.	c #D5F0FF",
"H.	c #E0F7FF",
"I.	c #E1F9FF",
"J.	c #ECFEFF",
"K.	c #528FC0",
"L.	c #316A99",
"M.	c #9AC4E2",
"N.	c #E7FBFF",
"O.	c #D2EEFC",
"P.	c #D2EFFC",
"Q.	c #ECFFFF",
"R.	c #80B1D5",
"S.	c #316B9A",
"T.	c #3F7FB3",
"U.	c #C1DEF0",
"V.	c #DEF6FF",
"W.	c #D5EFFD",
"X.	c #D4EFFD",
"Y.	c #D5F0FD",
"Z.	c #E1F7FF",
"`.	c #AACEE5",
" +	c #3F7EB2",
".+	c #4D89B9",
"++	c #ABCFE6",
"@+	c #EBFFFF",
"#+	c #DDF4FF",
"$+	c #D8F1FE",
"%+	c #D8F1FD",
"&+	c #D7F1FD",
"*+	c #D8F2FE",
"=+	c #DFF6FF",
"-+	c #E9FCFF",
";+	c #9DC6E0",
">+	c #4280B4",
",+	c #376E9B",
"'+	c #6AA1CC",
")+	c #DDF4FB",
"!+	c #EEFFFF",
"~+	c #E2F8FF",
"{+	c #DDF5FF",
"]+	c #DCF4FF",
"^+	c #E4F8FF",
"/+	c #CEE8F6",
"(+	c #5E99C6",
"_+	c #366C9B",
":+	c #3678AF",
"<+	c #6DA0C7",
"[+	c #B4D6EB",
"}+	c #D5EDF6",
"|+	c #D7EFF5",
"1+	c #D6EDF6",
"2+	c #AACFE7",
"3+	c #6498C3",
"4+	c #3175AC",
"5+	c #266AA4",
"6+	c #226DAC",
"7+	c #206CAB",
"8+	c #286CA4",
"                  . + @ @ + .                   ",
"            # $ % & * = = * & - ; >             ",
"          , ' ) ! ~ { { { { ~ ! ) ] ^           ",
"        / ( _ : < [ } } } } [ < : _ | 1         ",
"      2 3 4 5 6 7 7 7 7 7 7 7 7 6 5 4 8 9       ",
"    0 a b 6 c c d e e e e e e d c c 6 f g h     ",
"  i j k l m n n o p p p p p p o n n m l q r s   ",
"    t u v w x y z A A A A A A z y x w v B g     ",
"  C D E F F G H I J K K K K J I H G F F L M N   ",
"  O P Q R R S T U V W W W W V U T S R R X Y Z   ",
"  `  ...+.@.#.$.%.&.*.*.*.*.&.%.$.#.@.@.=.-.;.  ",
"  >.,.'.).!.~.{.].^././././.^.].{.~.!.).'.P (.  ",
"  O _.:.<.<.[.}.|.1.2.2.2.2.1.|.}.[.<.<.:.3.4.  ",
"  5.6.7.8.8.9.0.a.b.c.d.d.c.b.a.0.9.8.8.e.f.g.  ",
"  h.i.j.k.k.l.m.n.o.p.p.p.p.o.n.m.l.k.k.q.r.s.  ",
"    t.u.v.v.w.x.y.z.z.z.z.z.z.y.x.w.v.v.A.B.    ",
"    C.D.E.F.F.G.H.I.I.I.I.I.I.H.G.F.F.E.J.K.    ",
"    L.M.N.O.O.O.O.O.O.O.O.O.O.O.O.O.P.Q.R.S.    ",
"      T.U.V.W.X.X.X.X.X.X.X.X.X.X.Y.Z.`. +      ",
"        .+++@+#+$+%+&+&+&+&+&+*+=+-+;+>+        ",
"          ,+'+)+!+~+{+]+]+{+^+!+/+(+_+          ",
"              :+<+[+}+|+|+1+2+3+4+              ",
"                  5+6+7+7+6+8+                  ",
"                                                "};
