/* XPM */
static char * table_row_insert_xpm[] = {
"24 24 268 2",
"  	c None",
". 	c #469BC5",
"+ 	c #7EBEE2",
"@ 	c #7CBCE2",
"# 	c #7CBCE3",
"$ 	c #81BDDD",
"% 	c #7DBDE1",
"& 	c #84BDDA",
"* 	c #7BBCE3",
"= 	c #7CBDE3",
"- 	c #85BEDC",
"; 	c #0C7CB3",
"> 	c #FFD376",
", 	c #FFCE6A",
"' 	c #FFCE6B",
") 	c #FFCE68",
"! 	c #BFC6B1",
"~ 	c #F2CC76",
"{ 	c #FFCF5E",
"] 	c #93C0E4",
"^ 	c #FFCF5F",
"/ 	c #FFC95C",
"( 	c #FFFFF1",
"_ 	c #0074B1",
": 	c #7DBDE2",
"< 	c #F3CB72",
"[ 	c #EFC567",
"} 	c #EFC669",
"| 	c #F0C664",
"1 	c #B1BFAE",
"2 	c #E0C574",
"3 	c #EFC667",
"4 	c #EFC668",
"5 	c #F5C85B",
"6 	c #87BAE1",
"7 	c #F6C85C",
"8 	c #EDC058",
"9 	c #FFFFF0",
"0 	c #0072B1",
"a 	c #83BCD8",
"b 	c #ADD8F9",
"c 	c #A0D2FA",
"d 	c #A2D3FA",
"e 	c #A3D4FA",
"f 	c #95C4E8",
"g 	c #A2D1F5",
"h 	c #A7D7FB",
"i 	c #89B8DD",
"j 	c #A6D6FB",
"k 	c #99CEF8",
"l 	c #FFFFFF",
"m 	c #0072B0",
"n 	c #7FB9D7",
"o 	c #DAF4FF",
"p 	c #D2F0FE",
"q 	c #D3F1FE",
"r 	c #D5F3FF",
"s 	c #AAD0E7",
"t 	c #CDECFA",
"u 	c #D4F2FE",
"v 	c #DCF8FF",
"w 	c #8BB6D7",
"x 	c #DBF8FF",
"y 	c #D4F1FE",
"z 	c #CFEFFE",
"A 	c #0071AF",
"B 	c #DDF5FF",
"C 	c #D5F1FE",
"D 	c #D6F2FE",
"E 	c #D9F4FF",
"F 	c #ACD1E7",
"G 	c #D0EEFA",
"H 	c #D7F3FE",
"I 	c #DFFAFF",
"J 	c #8DB7D7",
"K 	c #DEF9FF",
"L 	c #D2F1FE",
"M 	c #81BCD9",
"N 	c #B8D5EA",
"O 	c #AED0E6",
"P 	c #AED0E7",
"Q 	c #B0D1E7",
"R 	c #9EC3DE",
"S 	c #AECFE6",
"T 	c #AFD0E7",
"U 	c #B4D4E9",
"V 	c #91B8D7",
"W 	c #B3D4E9",
"X 	c #A7CCE5",
"Y 	c #0072AF",
"Z 	c #7FBAD8",
"` 	c #DBF1FB",
" .	c #D4EDF9",
"..	c #D5EEF9",
"+.	c #D8F0FA",
"@.	c #AFD1E6",
"#.	c #CFEAF5",
"$.	c #DDF4FC",
"%.	c #93BBD8",
"&.	c #DBF3FC",
"*.	c #D6EFFA",
"=.	c #AFD1E5",
"-.	c #D0ECF9",
";.	c #7EB9D7",
">.	c #E5F8FF",
",.	c #DEF3FF",
"'.	c #E4F8FF",
").	c #D4EDE4",
"!.	c #D6EEE4",
"~.	c #B8D6EA",
"{.	c #D8EFFA",
"].	c #DFF5FF",
"^.	c #DEF4FF",
"/.	c #E8FCFF",
"(.	c #94BAD8",
"_.	c #E7FBFF",
":.	c #E1F6FF",
"<.	c #B4D3E8",
"[.	c #D8F0F9",
"}.	c #DFF4FF",
"|.	c #DCF3FF",
"1.	c #0071B1",
"2.	c #EEFEFF",
"3.	c #ECFEFF",
"4.	c #C8E5D2",
"5.	c #538E00",
"6.	c #428612",
"7.	c #CEE2FB",
"8.	c #E3F6FB",
"9.	c #EBFDFF",
"0.	c #F2FFFF",
"a.	c #FEFFFF",
"b.	c #A2C2F4",
"c.	c #FDFFFF",
"d.	c #F4FFFF",
"e.	c #F7FFFF",
"f.	c #C5DDFF",
"g.	c #EDFBFF",
"h.	c #F3FFFF",
"i.	c #0072D3",
"j.	c #83BDD9",
"k.	c #A6C4E1",
"l.	c #A0C1E4",
"m.	c #4D8E00",
"n.	c #D1DE75",
"o.	c #428719",
"p.	c #B8CFFF",
"q.	c #A9C6F4",
"r.	c #9ABCD9",
"s.	c #56942E",
"t.	c #448919",
"u.	c #3C8318",
"v.	c #438919",
"w.	c #408618",
"x.	c #438819",
"y.	c #498C1A",
"z.	c #328011",
"A.	c #458700",
"B.	c #7EBADA",
"C.	c #F6FEF5",
"D.	c #3A8300",
"E.	c #ADCD40",
"F.	c #D7E87A",
"G.	c #438705",
"H.	c #438700",
"I.	c #69A32C",
"J.	c #F2F7EB",
"K.	c #81AC36",
"L.	c #CFDB5B",
"M.	c #CBD757",
"N.	c #CBD857",
"O.	c #D0DB5E",
"P.	c #94B949",
"Q.	c #8AC1E9",
"R.	c #3B8100",
"S.	c #9FC92A",
"T.	c #A8D116",
"U.	c #A9D128",
"V.	c #C2E438",
"W.	c #DAF351",
"X.	c #357E00",
"Y.	c #F2F6EF",
"Z.	c #72A81C",
"`.	c #9DC905",
" +	c #96C400",
".+	c #97C400",
"++	c #9DC806",
"@+	c #83B32C",
"#+	c #FCFDF4",
"$+	c #3F8800",
"%+	c #92CB00",
"&+	c #A4DA00",
"*+	c #438600",
"=+	c #3F8600",
"-+	c #6BA32D",
";+	c #F2F6EC",
">+	c #69AC00",
",+	c #A8E203",
"'+	c #A5E000",
")+	c #A9E304",
"!+	c #7EB910",
"~+	c #82BDD9",
"{+	c #AEC9E1",
"]+	c #A8C4E3",
"^+	c #559800",
"/+	c #9DDD00",
"(+	c #488721",
"_+	c #C1D4FF",
":+	c #B2CAF4",
"<+	c #A2C1D9",
"[+	c #5A9333",
"}+	c #49881E",
"|+	c #41821D",
"1+	c #4A881F",
"2+	c #48861F",
"3+	c #49871F",
"4+	c #45851E",
"5+	c #49871E",
"6+	c #48871F",
"7+	c #4E891F",
"8+	c #377F16",
"9+	c #458100",
"0+	c #7CB8D7",
"a+	c #D7E5D1",
"b+	c #559D00",
"c+	c #408411",
"d+	c #D9E5FB",
"e+	c #F6FAFC",
"f+	c #AFC8F5",
"g+	c #D4E1FF",
"h+	c #FEFEFF",
"i+	c #0072D4",
"j+	c #7CB9D7",
"k+	c #F8FDFF",
"l+	c #EAF2E5",
"m+	c #E1EEE2",
"n+	c #CBDBEB",
"o+	c #F2F6FA",
"p+	c #F8FEFF",
"q+	c #F7FDFF",
"r+	c #A4C0D9",
"s+	c #FAFFFF",
"t+	c #C8D9E8",
"u+	c #7DB9D8",
"v+	c #F7F9FB",
"w+	c #F3F6FA",
"x+	c #F4F7FA",
"y+	c #C6D7E7",
"z+	c #E8EFF5",
"A+	c #F7FAFC",
"B+	c #A9C2D9",
"C+	c #F8FAFC",
"D+	c #C6D7E6",
"E+	c #F2F6F9",
"F+	c #7FBBD9",
"G+	c #D3DFEB",
"H+	c #CAD9E8",
"I+	c #CADAE8",
"J+	c #CBDAE8",
"K+	c #B4CADE",
"L+	c #CEDDEA",
"M+	c #A4BFD7",
"N+	c #CDDCE9",
"O+	c #85BEDA",
"P+	c #0075B2",
"Q+	c #0D7CB4",
"R+	c #0073AF",
"S+	c #1877A4",
"                                                ",
"  . + @ @ @ # $ % @ @ # & * @ # $ % @ = - ;     ",
"  + > , ' ' ) ! ~ ' ' { ] ^ ' ) ! ~ ' / ( _     ",
"  : < [ } } | 1 2 3 4 5 6 7 } | 1 2 3 8 9 0     ",
"  a b c d d e f g d d h i j d e f g d k l m     ",
"  n o p q q r s t u q v w x q r s t y z l A     ",
"  n B C D D E F G H D I J K D E F G H L l A     ",
"  M N O P P Q R S T P U V W P Q R S T X l Y     ",
"  Z `  .....+.@.#.....$.%.&...*.=.#...-.l Y     ",
"  ;.>.,.'.).!.~.{.].^./.(._.^.:.<.[.}.|.l 1.    ",
"  ;.2.3.4.5.6.7.8.9.0.a.b.c.d.e.f.g.d.h.l i.    ",
"  j.k.l.m.n.o.p.q.r.s.t.u.t.v.v.w.v.v.x.y.z.A.  ",
"  B.C.D.E.F.G.H.I.J.K.L.M.M.M.M.N.M.M.M.M.O.P.  ",
"  Q.R.S.T.U.V.W.X.Y.Z.`. +.+.+.+.+.+.+.+ +++@+  ",
"  B.#+$+%+&+*+=+-+;+>+,+'+'+'+'+'+'+'+'+'+)+!+  ",
"  ~+{+]+^+/+(+_+:+<+[+}+|+1+2+3+4+5+6+6+7+8+9+  ",
"  0+l l a+b+c+d+e+l l l f+l l l g+h+l l l i+    ",
"  j+a.k+c.l+m+n+o+p+q+l r+l q+s+t+o+p+k+l 1.    ",
"  u+v+w+w+o+x+y+z+w+w+A+B+C+w+x+D+z+w+E+l A     ",
"  F+G+H+I+I+J+K+D+I+I+L+M+N+I+J+K+D+I+D+l Y     ",
"  O+l l l l l l l l l l l l l l l l l l l P+    ",
"  Q+R+A A A A Y A A A A Y A A A Y A A Y P+S+    ",
"                                                ",
"                                                "};
