/* XPM */
static char * table_row_up_xpm[] = {
"24 24 271 2",
"  	c None",
". 	c #4B9EC7",
"+ 	c #7EBDE2",
"@ 	c #7CBCE2",
"# 	c #7CBCE3",
"$ 	c #81BDDD",
"% 	c #7DBDE1",
"& 	c #84BDDA",
"* 	c #7BBCE3",
"= 	c #7CBDE3",
"- 	c #84BEDB",
"; 	c #0A7AB2",
"> 	c #7FBEE3",
", 	c #FFD376",
"' 	c #FFCE6A",
") 	c #FFCE6B",
"! 	c #FFCE68",
"~ 	c #BFC6B1",
"{ 	c #F2CC76",
"] 	c #FFCF5E",
"^ 	c #93C0E4",
"/ 	c #FFCF5F",
"( 	c #FFC95C",
"_ 	c #FFFFF1",
": 	c #0072AF",
"< 	c #7EBEE3",
"[ 	c #F3CB72",
"} 	c #EFC567",
"| 	c #EFC669",
"1 	c #F0C664",
"2 	c #B1BFAE",
"3 	c #E0C574",
"4 	c #EFC667",
"5 	c #EFC668",
"6 	c #F5C85B",
"7 	c #87BAE1",
"8 	c #F6C85C",
"9 	c #EDC058",
"0 	c #FFFFF0",
"a 	c #0071AF",
"b 	c #83BDD9",
"c 	c #ADD8F9",
"d 	c #A0D2FA",
"e 	c #A2D3FA",
"f 	c #A3D4FA",
"g 	c #95C4E8",
"h 	c #A2D1F5",
"i 	c #A7D7FB",
"j 	c #89B8DD",
"k 	c #A6D6FB",
"l 	c #99CEF8",
"m 	c #FFFFFF",
"n 	c #0071AD",
"o 	c #80BAD8",
"p 	c #DAF4FF",
"q 	c #D2F0FE",
"r 	c #D3F1FE",
"s 	c #D5F3FF",
"t 	c #AAD0E7",
"u 	c #CDECFA",
"v 	c #D4F2FE",
"w 	c #DCF8FF",
"x 	c #8BB6D7",
"y 	c #DBF8FF",
"z 	c #D4F1FE",
"A 	c #CFEFFE",
"B 	c #0070AD",
"C 	c #7FBAD8",
"D 	c #DDF5FF",
"E 	c #D5F1FE",
"F 	c #D6F2FE",
"G 	c #D9F4FF",
"H 	c #ACD1E7",
"I 	c #D0EEFA",
"J 	c #D7F3FE",
"K 	c #DFFAFF",
"L 	c #8DB7D7",
"M 	c #DEF9FF",
"N 	c #D2F1FE",
"O 	c #82BDDA",
"P 	c #B8D5EA",
"Q 	c #AED0E6",
"R 	c #B3D4EF",
"S 	c #B9D8F8",
"T 	c #AFD1E6",
"U 	c #9EC3DE",
"V 	c #AECFE6",
"W 	c #AFD0E7",
"X 	c #AED0E7",
"Y 	c #B4D4E9",
"Z 	c #91B8D7",
"` 	c #B3D4E9",
" .	c #B0D1E7",
"..	c #A7CCE5",
"+.	c #80BBD9",
"@.	c #DBF1FB",
"#.	c #D7F0FE",
"$.	c #8FBD8F",
"%.	c #367E08",
"&.	c #E9FCFF",
"*.	c #AFD0E5",
"=.	c #CFEAF5",
"-.	c #D5EEF9",
";.	c #DDF4FC",
">.	c #93BBD8",
",.	c #DBF3FC",
"'.	c #D6EFFA",
").	c #AFD1E5",
"!.	c #D0ECF9",
"~.	c #E8FAFF",
"{.	c #B6D7C1",
"].	c #68A30A",
"^.	c #8BBB15",
"/.	c #488B0B",
"(.	c #B6D4E9",
"_.	c #D9F0FA",
":.	c #DFF5FF",
"<.	c #DEF4FF",
"[.	c #E8FCFF",
"}.	c #94BAD8",
"|.	c #E7FBFF",
"1.	c #E1F6FF",
"2.	c #B4D3E8",
"3.	c #D8F0F9",
"4.	c #DFF4FF",
"5.	c #DCF3FF",
"6.	c #0070AF",
"7.	c #8AC2E8",
"8.	c #A1C69A",
"9.	c #519800",
"0.	c #96CD00",
"a.	c #B0D32B",
"b.	c #9AC030",
"c.	c #46871A",
"d.	c #E4F7FE",
"e.	c #EAFDFF",
"f.	c #F2FFFF",
"g.	c #FEFFFF",
"h.	c #A2C2F4",
"i.	c #FDFFFF",
"j.	c #F4FFFF",
"k.	c #F7FFFF",
"l.	c #C5DDFF",
"m.	c #EDFBFF",
"n.	c #F3FFFF",
"o.	c #0070D0",
"p.	c #2B8470",
"q.	c #6CB300",
"r.	c #A6E300",
"s.	c #9ED200",
"t.	c #B8D849",
"u.	c #DDEB83",
"v.	c #ABC440",
"w.	c #50910D",
"x.	c #9FBFE5",
"y.	c #56942E",
"z.	c #448919",
"A.	c #3C8318",
"B.	c #438919",
"C.	c #408618",
"D.	c #438819",
"E.	c #498C1A",
"F.	c #328011",
"G.	c #438500",
"H.	c #26826F",
"I.	c #4C8B1D",
"J.	c #4B891B",
"K.	c #66A600",
"L.	c #CDE45D",
"M.	c #2B7800",
"N.	c #478A1B",
"O.	c #3D8211",
"P.	c #F5F9EC",
"Q.	c #81AC36",
"R.	c #CFDB5B",
"S.	c #CBD757",
"T.	c #CBD857",
"U.	c #D1DB5E",
"V.	c #94B948",
"W.	c #84BEE1",
"X.	c #E9F5ED",
"Y.	c #6AA900",
"Z.	c #DDEE66",
"`.	c #478A16",
" +	c #D8E7FF",
".+	c #FFFEFF",
"++	c #E5EEDE",
"@+	c #72A81C",
"#+	c #9DC905",
"$+	c #96C400",
"%+	c #97C400",
"&+	c #9DC806",
"*+	c #84B42C",
"=+	c #7EBAD9",
"-+	c #EDF9EA",
";+	c #569512",
">+	c #3F8400",
",+	c #8CBA5A",
"'+	c #CDE0FF",
")+	c #F6F9FE",
"!+	c #EAF1E1",
"~+	c #69AC00",
"{+	c #A8E203",
"]+	c #A5E000",
"^+	c #A9E304",
"/+	c #7FB910",
"(+	c #82BEDA",
"_+	c #AFC9E2",
":+	c #A2C1EF",
"<+	c #AAC6FA",
"[+	c #ACC8FC",
"}+	c #A7C4F6",
"|+	c #9EBDEB",
"1+	c #A9C5E9",
"2+	c #A2C1DA",
"3+	c #5A9333",
"4+	c #49881E",
"5+	c #41821D",
"6+	c #4A881F",
"7+	c #48861F",
"8+	c #49871F",
"9+	c #45851E",
"0+	c #49871E",
"a+	c #48871F",
"b+	c #4E891F",
"c+	c #377E16",
"d+	c #437D00",
"e+	c #7DB9D8",
"f+	c #CDDCEB",
"g+	c #F6FAFC",
"h+	c #AFC8F5",
"i+	c #D4E1FF",
"j+	c #FEFEFF",
"k+	c #006ECD",
"l+	c #7DBAD8",
"m+	c #F8FDFF",
"n+	c #FAFFFF",
"o+	c #F6FCFD",
"p+	c #C9DAE9",
"q+	c #F2F6FA",
"r+	c #F8FEFF",
"s+	c #F7FDFF",
"t+	c #A4C0D9",
"u+	c #C8D9E8",
"v+	c #F7F9FB",
"w+	c #F3F6FA",
"x+	c #F4F7FA",
"y+	c #C6D7E7",
"z+	c #E8EFF5",
"A+	c #F7FAFC",
"B+	c #A9C2D9",
"C+	c #F8FAFC",
"D+	c #C6D7E6",
"E+	c #F2F6F9",
"F+	c #80BCDA",
"G+	c #D3DFEB",
"H+	c #CAD9E8",
"I+	c #CADAE8",
"J+	c #CBDAE8",
"K+	c #B4CADE",
"L+	c #CEDDEA",
"M+	c #A4BFD7",
"N+	c #CDDCE9",
"O+	c #86BFDB",
"P+	c #0074AF",
"Q+	c #0C79AF",
"R+	c #006EA9",
"S+	c #006DA9",
"T+	c #006DA8",
"U+	c #0071AB",
"V+	c #18719C",
"                                                ",
"  . + @ @ @ # $ % @ @ # & * @ # $ % @ = - ;     ",
"  > , ' ) ) ! ~ { ) ) ] ^ / ) ! ~ { ) ( _ :     ",
"  < [ } | | 1 2 3 4 5 6 7 8 | 1 2 3 4 9 0 a     ",
"  b c d e e f g h e e i j k e f g h e l m n     ",
"  o p q r r s t u v r w x y r s t u z A m B     ",
"  C D E F F G H I J F K L M F G H I J N m B     ",
"  O P Q R S T U V W X Y Z ` X  .U V W ..m n     ",
"  +.@.#.$.%.&.*.=.-.-.;.>.,.-.'.).=.-.!.m n     ",
"  C ~.{.].^./.(._.:.<.[.}.|.<.1.2.3.4.5.m 6.    ",
"  7.8.9.0.a.b.c.d.e.f.g.h.i.j.k.l.m.j.n.m o.    ",
"  p.q.r.s.t.u.v.w.x.y.z.A.z.B.B.C.B.B.D.E.F.G.  ",
"  H.I.J.K.L.M.N.O.P.Q.R.S.S.S.S.T.S.S.S.S.U.V.  ",
"  W.m X.Y.Z.`. +.+++@+#+$+%+%+%+%+%+%+%+$+&+*+  ",
"  =+m -+;+>+,+'+)+!+~+{+]+]+]+]+]+]+]+]+]+^+/+  ",
"  (+_+:+<+[+}+|+1+2+3+4+5+6+7+8+9+0+a+a+b+c+d+  ",
"  e+m g.m i.m f+g+m m m h+m m m i+j+m m m k+    ",
"  l+g.m+n+g.o+p+q+r+s+m t+m s+n+u+q+r+m+m 6.    ",
"  =+v+w+w+q+x+y+z+w+w+A+B+C+w+x+D+z+w+E+m B     ",
"  F+G+H+I+I+J+K+D+I+I+L+M+N+I+J+K+D+I+D+m n     ",
"  O+m m m m m m m m m m m m m m m m m m m P+    ",
"  Q+R+S+S+S+S+R+S+S+S+S+R+S+S+S+R+S+S+T+U+V+    ",
"                                                ",
"                                                "};
