/* XPM */
static char * table_row_down_xpm[] = {
"24 24 276 2",
"  	c None",
". 	c #4B9EC7",
"+ 	c #7EBDE2",
"@ 	c #7CBCE2",
"# 	c #7CBCE3",
"$ 	c #81BDDD",
"% 	c #7DBDE1",
"& 	c #84BDDA",
"* 	c #7BBCE3",
"= 	c #7CBDE3",
"- 	c #84BEDB",
"; 	c #0A7AB2",
"> 	c #7FBEE3",
", 	c #FFD376",
"' 	c #FFCE6A",
") 	c #FFCE6B",
"! 	c #FFCE68",
"~ 	c #BFC6B1",
"{ 	c #F2CC76",
"] 	c #FFCF5E",
"^ 	c #93C0E4",
"/ 	c #FFCF5F",
"( 	c #FFC95C",
"_ 	c #FFFFF1",
": 	c #0072AF",
"< 	c #7EBEE3",
"[ 	c #F3CB72",
"} 	c #EFC567",
"| 	c #EFC669",
"1 	c #F0C664",
"2 	c #B1BFAE",
"3 	c #E0C574",
"4 	c #EFC667",
"5 	c #EFC668",
"6 	c #F5C85B",
"7 	c #87BAE1",
"8 	c #F6C85C",
"9 	c #EDC058",
"0 	c #FFFFF0",
"a 	c #0071AF",
"b 	c #83BDD9",
"c 	c #ADD8F9",
"d 	c #A0D2FA",
"e 	c #A2D3FA",
"f 	c #A3D4FA",
"g 	c #95C4E8",
"h 	c #A2D1F5",
"i 	c #A7D7FB",
"j 	c #89B8DD",
"k 	c #A6D6FB",
"l 	c #99CEF8",
"m 	c #FFFFFF",
"n 	c #0071AD",
"o 	c #80BAD8",
"p 	c #DAF4FF",
"q 	c #D2F0FE",
"r 	c #D3F1FE",
"s 	c #D5F3FF",
"t 	c #AAD0E7",
"u 	c #CDECFA",
"v 	c #D4F2FE",
"w 	c #DCF8FF",
"x 	c #8BB6D7",
"y 	c #DBF8FF",
"z 	c #D4F1FE",
"A 	c #CFEFFE",
"B 	c #0070AD",
"C 	c #7FBAD8",
"D 	c #DDF5FF",
"E 	c #D5F1FE",
"F 	c #D6F2FE",
"G 	c #D9F4FF",
"H 	c #ACD1E7",
"I 	c #D0EEFA",
"J 	c #D7F3FE",
"K 	c #DFFAFF",
"L 	c #8DB7D7",
"M 	c #DEF9FF",
"N 	c #D2F1FE",
"O 	c #82BDDA",
"P 	c #B8D5EA",
"Q 	c #AED0E6",
"R 	c #AED0E7",
"S 	c #B0D1E7",
"T 	c #9EC3DE",
"U 	c #AECFE6",
"V 	c #AFD0E7",
"W 	c #B4D4E9",
"X 	c #91B8D7",
"Y 	c #B3D4E9",
"Z 	c #A7CCE5",
"` 	c #80BBD9",
" .	c #DBF1FB",
"..	c #D4EDF9",
"+.	c #D5EEF9",
"@.	c #D8F0FA",
"#.	c #AFD1E6",
"$.	c #CFEAF5",
"%.	c #DDF4FC",
"&.	c #93BBD8",
"*.	c #DBF3FC",
"=.	c #D6EFFA",
"-.	c #AFD1E5",
";.	c #D0ECF9",
">.	c #E5F8FF",
",.	c #DEF3FF",
"'.	c #E0F5FF",
").	c #E5F9FF",
"!.	c #E8FBFF",
"~.	c #B5D4E8",
"{.	c #D8EFFA",
"].	c #DFF5FF",
"^.	c #DEF4FF",
"/.	c #E8FCFF",
"(.	c #94BAD8",
"_.	c #E7FBFF",
":.	c #E1F6FF",
"<.	c #B4D3E8",
"[.	c #D8F0F9",
"}.	c #DFF4FF",
"|.	c #DCF3FF",
"1.	c #0070AF",
"2.	c #7EB9D8",
"3.	c #F7FFFF",
"4.	c #F2FFFF",
"5.	c #F2FEFF",
"6.	c #F3FFFF",
"7.	c #BED7EB",
"8.	c #E3F6FB",
"9.	c #EBFDFF",
"0.	c #FEFFFF",
"a.	c #A2C2F4",
"b.	c #FDFFFF",
"c.	c #F4FFFF",
"d.	c #C5DDFF",
"e.	c #EDFBFF",
"f.	c #0070D0",
"g.	c #83BEDA",
"h.	c #A8C5E2",
"i.	c #A2C1EF",
"j.	c #ABC6FA",
"k.	c #ADC8FC",
"l.	c #A7C4F6",
"m.	c #9DBDEB",
"n.	c #A0C1E9",
"o.	c #9ABDDA",
"p.	c #56942E",
"q.	c #448919",
"r.	c #3C8318",
"s.	c #438919",
"t.	c #408618",
"u.	c #438819",
"v.	c #498C1A",
"w.	c #328011",
"x.	c #438500",
"y.	c #7EBAD9",
"z.	c #EDF9EA",
"A.	c #559412",
"B.	c #3E8500",
"C.	c #8FBB5B",
"D.	c #CDE0FF",
"E.	c #F7F9FE",
"F.	c #EAF2DF",
"G.	c #81AC36",
"H.	c #CFDB5B",
"I.	c #CBD757",
"J.	c #CBD857",
"K.	c #D1DB5E",
"L.	c #94B948",
"M.	c #84BEE1",
"N.	c #E8F5EC",
"O.	c #7BAB23",
"P.	c #C7EC34",
"Q.	c #498A1A",
"R.	c #D8E7FF",
"S.	c #FFFEFF",
"T.	c #E5EEDE",
"U.	c #72A81C",
"V.	c #9DC905",
"W.	c #96C400",
"X.	c #97C400",
"Y.	c #9DC806",
"Z.	c #84B42C",
"`.	c #27826F",
" +	c #4E8E1D",
".+	c #448911",
"++	c #7EAD33",
"@+	c #AADA0C",
"#+	c #357904",
"$+	c #49881F",
"%+	c #3B8111",
"&+	c #F5F8EE",
"*+	c #69AC00",
"=+	c #A8E203",
"-+	c #A5E000",
";+	c #A9E304",
">+	c #7FB910",
",+	c #2A8670",
"'+	c #6A9900",
")+	c #E3EC8D",
"!+	c #CEE36F",
"~+	c #9DCB0A",
"{+	c #A7DE00",
"]+	c #8CD000",
"^+	c #53940F",
"/+	c #A7C4E6",
"(+	c #5A9333",
"_+	c #49881E",
":+	c #41821D",
"<+	c #4A881F",
"[+	c #48861F",
"}+	c #49871F",
"|+	c #45851E",
"1+	c #49871E",
"2+	c #48871F",
"3+	c #4E891F",
"4+	c #377E16",
"5+	c #437D00",
"6+	c #89C1E8",
"7+	c #ABCC9B",
"8+	c #4C8C00",
"9+	c #B4D33F",
"0+	c #9ECE02",
"a+	c #84C100",
"b+	c #4C8E23",
"c+	c #F7FAFE",
"d+	c #AFC8F5",
"e+	c #D4E1FF",
"f+	c #FEFEFF",
"g+	c #006ECD",
"h+	c #7CBAD8",
"i+	c #CADFC1",
"j+	c #4F9100",
"k+	c #A8CF39",
"l+	c #478B0A",
"m+	c #C8D9EA",
"n+	c #F3F7FA",
"o+	c #F8FEFF",
"p+	c #F7FDFF",
"q+	c #A4C0D9",
"r+	c #FAFFFF",
"s+	c #C8D9E8",
"t+	c #F2F6FA",
"u+	c #F8FDFF",
"v+	c #F7F9FB",
"w+	c #F6F9FE",
"x+	c #A2C392",
"y+	c #347D05",
"z+	c #C6D7E6",
"A+	c #E8EFF5",
"B+	c #F3F6FA",
"C+	c #F7FAFC",
"D+	c #A9C2D9",
"E+	c #F8FAFC",
"F+	c #F4F7FA",
"G+	c #F2F6F9",
"H+	c #80BCDA",
"I+	c #D3DFEB",
"J+	c #C9D9E8",
"K+	c #D0DEF0",
"L+	c #D7E2F9",
"M+	c #CADAE7",
"N+	c #B4CADE",
"O+	c #CADAE8",
"P+	c #CEDDEA",
"Q+	c #A4BFD7",
"R+	c #CDDCE9",
"S+	c #CBDAE8",
"T+	c #86BFDB",
"U+	c #0074AF",
"V+	c #0C79AF",
"W+	c #006EA9",
"X+	c #006DA9",
"Y+	c #006DA8",
"Z+	c #0071AB",
"`+	c #18719C",
"                                                ",
"  . + @ @ @ # $ % @ @ # & * @ # $ % @ = - ;     ",
"  > , ' ) ) ! ~ { ) ) ] ^ / ) ! ~ { ) ( _ :     ",
"  < [ } | | 1 2 3 4 5 6 7 8 | 1 2 3 4 9 0 a     ",
"  b c d e e f g h e e i j k e f g h e l m n     ",
"  o p q r r s t u v r w x y r s t u z A m B     ",
"  C D E F F G H I J F K L M F G H I J N m B     ",
"  O P Q R R S T U V R W X Y R S T U V Z m n     ",
"  `  ...+.+.@.#.$.+.+.%.&.*.+.=.-.$.+.;.m n     ",
"  C >.,.'.).!.~.{.].^./.(._.^.:.<.[.}.|.m 1.    ",
"  2.3.4.4.5.6.7.8.9.4.0.a.b.c.3.d.e.c.6.m f.    ",
"  g.h.i.j.k.l.m.n.o.p.q.r.q.s.s.t.s.s.u.v.w.x.  ",
"  y.m z.A.B.C.D.E.F.G.H.I.I.I.I.J.I.I.I.I.K.L.  ",
"  M.m N.O.P.Q.R.S.T.U.V.W.X.X.X.X.X.X.X.W.Y.Z.  ",
"  `. +.+++@+#+$+%+&+*+=+-+-+-+-+-+-+-+-+-+;+>+  ",
"  ,+'+)+!+~+{+]+^+/+(+_+:+<+[+}+|+1+2+2+3+4+5+  ",
"  6+7+8+9+0+a+b+c+0.m m d+m m m e+f+m m m g+    ",
"  h+m i+j+k+l+m+n+o+p+m q+m p+r+s+t+o+u+m 1.    ",
"  y.v+w+x+y+m z+A+B+B+C+D+E+B+F+z+A+B+G+m B     ",
"  H+I+J+K+L+M+N+z+O+O+P+Q+R+O+S+N+z+O+z+m n     ",
"  T+m m m m m m m m m m m m m m m m m m m U+    ",
"  V+W+X+X+X+X+W+X+X+X+X+W+X+X+X+W+X+X+Y+Z+`+    ",
"                                                ",
"                                                "};
