/* XPM */
static char * table_row_delete_xpm[] = {
"24 24 257 2",
"  	c None",
". 	c #469BC5",
"+ 	c #7EBEE2",
"@ 	c #7CBCE2",
"# 	c #7CBCE3",
"$ 	c #81BDDD",
"% 	c #7DBDE1",
"& 	c #84BDDA",
"* 	c #7BBCE3",
"= 	c #7CBDE3",
"- 	c #85BEDC",
"; 	c #0C7CB3",
"> 	c #FFD376",
", 	c #FFCE6A",
"' 	c #FFCE6B",
") 	c #FFCE68",
"! 	c #BFC6B1",
"~ 	c #F2CC76",
"{ 	c #FFCF5E",
"] 	c #93C0E4",
"^ 	c #FFCF5F",
"/ 	c #FFC95C",
"( 	c #FFFFF1",
"_ 	c #0074B1",
": 	c #7DBDE2",
"< 	c #F3CB72",
"[ 	c #EFC567",
"} 	c #EFC669",
"| 	c #F0C664",
"1 	c #B1BFAE",
"2 	c #E0C574",
"3 	c #EFC667",
"4 	c #EFC668",
"5 	c #F5C85B",
"6 	c #87BAE1",
"7 	c #F6C85C",
"8 	c #EDC058",
"9 	c #FFFFF0",
"0 	c #0072B1",
"a 	c #83BCD8",
"b 	c #ADD8F9",
"c 	c #A0D2FA",
"d 	c #A2D3FA",
"e 	c #A3D4FA",
"f 	c #95C4E8",
"g 	c #A2D1F5",
"h 	c #A7D7FB",
"i 	c #89B8DD",
"j 	c #A6D6FB",
"k 	c #99CEF8",
"l 	c #FFFFFF",
"m 	c #0072B0",
"n 	c #7FB9D7",
"o 	c #DAF4FF",
"p 	c #D2F0FE",
"q 	c #D3F1FE",
"r 	c #D5F3FF",
"s 	c #AAD0E7",
"t 	c #CDECFA",
"u 	c #D4F2FE",
"v 	c #DCF8FF",
"w 	c #8BB6D7",
"x 	c #DBF8FF",
"y 	c #D4F1FE",
"z 	c #CFEFFE",
"A 	c #0071AF",
"B 	c #DDF5FF",
"C 	c #D5F1FE",
"D 	c #D6F2FE",
"E 	c #D9F4FF",
"F 	c #ACD1E7",
"G 	c #D0EEFA",
"H 	c #D7F3FE",
"I 	c #DFFAFF",
"J 	c #8DB7D7",
"K 	c #DEF9FF",
"L 	c #D2F1FE",
"M 	c #81BCD9",
"N 	c #B8D5EA",
"O 	c #AED0E6",
"P 	c #AED0E7",
"Q 	c #B0D1E7",
"R 	c #9EC3DE",
"S 	c #AECFE6",
"T 	c #AFD0E7",
"U 	c #B4D4E9",
"V 	c #91B8D7",
"W 	c #B3D4E9",
"X 	c #A7CBE5",
"Y 	c #0072AF",
"Z 	c #7FBAD8",
"` 	c #DBF1FB",
" .	c #D4EDF9",
"..	c #D5EEF9",
"+.	c #D6EFFA",
"@.	c #AFD1E5",
"#.	c #CFEAF5",
"$.	c #DDF4FC",
"%.	c #93BBD8",
"&.	c #DBF3FC",
"*.	c #D4EFF9",
"=.	c #D0EDF9",
"-.	c #7EB9D7",
";.	c #E5F8FF",
">.	c #DEF3FF",
",.	c #DEF4FF",
"'.	c #E1F6FF",
").	c #B4D3E7",
"!.	c #D8F0F9",
"~.	c #DFF5FF",
"{.	c #E8FCFF",
"].	c #93BAD8",
"^.	c #E7FBFF",
"/.	c #D9F0F9",
"(.	c #DFF7FB",
"_.	c #D8E1DD",
":.	c #0074B0",
"<.	c #7EB8D7",
"[.	c #ECFFFF",
"}.	c #E4FFFF",
"|.	c #E7FFFF",
"1.	c #B5E6FB",
"2.	c #DDFFFF",
"3.	c #E5FFFF",
"4.	c #EEFFFF",
"5.	c #92CDEF",
"6.	c #EDFFFF",
"7.	c #E9FFFF",
"8.	c #BAD7E8",
"9.	c #E2F7FB",
"0.	c #E6E6E0",
"a.	c #BE0000",
"b.	c #E77C6B",
"c.	c #008CD3",
"d.	c #81C2E0",
"e.	c #BD898C",
"f.	c #C03320",
"g.	c #BE3B2A",
"h.	c #BF3B2B",
"i.	c #BB392A",
"j.	c #C03C2B",
"k.	c #B8372A",
"l.	c #B08389",
"m.	c #95CDEF",
"n.	c #9ED7F7",
"o.	c #9ECAE7",
"p.	c #E16652",
"q.	c #E23F22",
"r.	c #A1261B",
"s.	c #80C7E7",
"t.	c #C63521",
"u.	c #FEB3A5",
"v.	c #F48773",
"w.	c #F48A78",
"x.	c #F48B78",
"y.	c #F58B78",
"z.	c #F58A77",
"A.	c #F48673",
"B.	c #FFB3A5",
"C.	c #C33825",
"D.	c #D8BDBC",
"E.	c #C92F1A",
"F.	c #C9321C",
"G.	c #DD7161",
"H.	c #FDAA9B",
"I.	c #E14932",
"J.	c #BE1A04",
"K.	c #C43C2C",
"L.	c #FC907E",
"M.	c #F05037",
"N.	c #F0563D",
"O.	c #BF3F30",
"P.	c #D7948A",
"Q.	c #FD9684",
"R.	c #FF8774",
"S.	c #FB8573",
"T.	c #F2563E",
"U.	c #FC8B79",
"V.	c #D34431",
"W.	c #C43826",
"X.	c #FF8B78",
"Y.	c #FF745F",
"Z.	c #FF7661",
"`.	c #FF7761",
" +	c #C33B29",
".+	c #DDBDBC",
"++	c #C8301B",
"@+	c #C82C17",
"#+	c #E05340",
"$+	c #FF6D57",
"%+	c #E8543F",
"&+	c #BF220D",
"*+	c #80C2E0",
"=+	c #C28B8D",
"-+	c #BF3624",
";+	c #BD3D2E",
">+	c #BC3D2E",
",+	c #BE3E2E",
"'+	c #B93B2D",
")+	c #BD3E2E",
"!+	c #BF3F2F",
"~+	c #B6392C",
"{+	c #BF3625",
"]+	c #B68589",
"^+	c #9FD2EF",
"/+	c #A7DBF7",
"(+	c #A8D0E8",
"_+	c #E14730",
":+	c #EF553F",
"<+	c #A02217",
"[+	c #7CB8D7",
"}+	c #F8FFFF",
"|+	c #F9FFFF",
"1+	c #FCFFFF",
"2+	c #C6E9FC",
"3+	c #F1FFFF",
"4+	c #FAFFFF",
"5+	c #A0D2F0",
"6+	c #FDFFFF",
"7+	c #CADBE9",
"8+	c #F6F9FB",
"9+	c #F7E4E0",
"0+	c #BF0900",
"a+	c #E87E6D",
"b+	c #7CB9D7",
"c+	c #FEFFFF",
"d+	c #F7FDFF",
"e+	c #C8D9E8",
"f+	c #F2F6FA",
"g+	c #F8FEFF",
"h+	c #A4C0D9",
"i+	c #F9FCFB",
"j+	c #F3DFDC",
"k+	c #7DB9D8",
"l+	c #F7F9FB",
"m+	c #F3F6FA",
"n+	c #F4F7FA",
"o+	c #C6D7E6",
"p+	c #E8EFF5",
"q+	c #F7FAFC",
"r+	c #A9C2D9",
"s+	c #F8FAFC",
"t+	c #F2F6F9",
"u+	c #7FBBD9",
"v+	c #D3DFEB",
"w+	c #CAD9E8",
"x+	c #CADAE8",
"y+	c #CBDAE8",
"z+	c #B4CADE",
"A+	c #CEDDEA",
"B+	c #A4BFD7",
"C+	c #CDDCE9",
"D+	c #85BEDA",
"E+	c #0075B2",
"F+	c #0D7CB4",
"G+	c #0073AF",
"H+	c #1877A4",
"                                                ",
"  . + @ @ @ # $ % @ @ # & * @ # $ % @ = - ;     ",
"  + > , ' ' ) ! ~ ' ' { ] ^ ' ) ! ~ ' / ( _     ",
"  : < [ } } | 1 2 3 4 5 6 7 } | 1 2 3 8 9 0     ",
"  a b c d d e f g d d h i j d e f g d k l m     ",
"  n o p q q r s t u q v w x q r s t y z l A     ",
"  n B C D D E F G H D I J K D E F G H L l A     ",
"  M N O P P Q R S T P U V W P Q R S T X l Y     ",
"  Z `  .....+.@.#.....$.%.&...+.@.#.*.=.l Y     ",
"  -.;.>.,.,.'.).!.~.,.{.].^.,.'.)./.(._.l :.    ",
"  <.[.}.}.}.|.1.2.3.}.4.5.6.}.7.8.9.0.a.b.c.    ",
"  d.e.f.g.g.h.i.h.g.g.j.k.j.f.l.m.n.o.p.q.r.    ",
"  s.t.u.v.w.x.y.x.x.w.x.z.A.B.C.D.E.F.G.H.I.J.  ",
"  s.K.L.M.N.N.N.N.N.N.N.N.M.L.O.P.Q.R.S.T.U.V.  ",
"  s.W.X.Y.Z.`.Z.Z.Z.Z.`.Z.Y.X. +.+++@+#+$+%+&+  ",
"  *+=+-+;+>+,+'+)+;+;+!+~+,+{+]+^+/+(+_+:+<+    ",
"  [+l }+|+|+1+2+3+4+|+l 5+l |+6+7+8+9+0+a+c.    ",
"  b+c+d+d+d+4+e+f+g+d+l h+l d+4+e+f+i+j+l :.    ",
"  k+l+m+m+m+n+o+p+m+m+q+r+s+m+n+o+p+m+t+l Y     ",
"  u+v+w+x+x+y+z+o+x+x+A+B+C+x+y+z+o+x+o+l Y     ",
"  D+l l l l l l l l l l l l l l l l l l l E+    ",
"  F+G+A A A A Y A A A A Y A A A Y A A Y E+H+    ",
"                                                ",
"                                                "};
