/* XPM */
static char * table_del_unsync_xpm[] = {
"24 24 376 2",
"  	c None",
". 	c #2288BB",
"+ 	c #288CBD",
"@ 	c #268ABD",
"# 	c #268BBD",
"$ 	c #278BBE",
"% 	c #298DC1",
"& 	c #298CC1",
"* 	c #298BC1",
"= 	c #298DC2",
"- 	c #86BEDB",
"; 	c #FBFFFF",
"> 	c #F5FFFF",
", 	c #F6FFFF",
"' 	c #F0FAF6",
") 	c #AFD195",
"! 	c #C1E8A8",
"~ 	c #C0E8A8",
"{ 	c #C5F0AB",
"] 	c #C8F5AE",
"^ 	c #C9F5AE",
"/ 	c #C7F3AD",
"( 	c #CBF8B0",
"_ 	c #C8F4AD",
": 	c #C5F1AC",
"< 	c #A6C28D",
"[ 	c #FFFFFF",
"} 	c #80BBD8",
"| 	c #D5F2FF",
"1 	c #CCEDFD",
"2 	c #CDEEFD",
"3 	c #CEEEFF",
"4 	c #C7E7E4",
"5 	c #52992D",
"6 	c #77C755",
"7 	c #78CA56",
"8 	c #528D3A",
"9 	c #365F26",
"0 	c #355C25",
"a 	c #44742F",
"b 	c #1D3713",
"c 	c #42702E",
"d 	c #63A745",
"e 	c #407D1E",
"f 	c #E1FDFF",
"g 	c #CEEEFE",
"h 	c #D6F2FF",
"i 	c #CEEEFD",
"j 	c #CFEEFD",
"k 	c #D0EFFF",
"l 	c #C9E8E5",
"m 	c #67A036",
"n 	c #8DCE5D",
"o 	c #8CCD5D",
"p 	c #4C6F32",
"q 	c #43622C",
"r 	c #405F2B",
"s 	c #679A47",
"t 	c #3E5B2A",
"u 	c #3F5C2A",
"v 	c #76AD4F",
"w 	c #518324",
"x 	c #D0EFFE",
"y 	c #80BAD8",
"z 	c #DEFAFF",
"A 	c #D8F8FF",
"B 	c #D9F8FF",
"C 	c #D9F9FF",
"D 	c #D1F0E9",
"E 	c #78A83A",
"F 	c #A2DA63",
"G 	c #A1D963",
"H 	c #A8E368",
"I 	c #ABE869",
"J 	c #AAE769",
"K 	c #A7E267",
"L 	c #ABE769",
"M 	c #AAE668",
"N 	c #5E8627",
"O 	c #E8FFFF",
"P 	c #85C0DE",
"Q 	c #98A8B0",
"R 	c #899DA7",
"S 	c #8A9EA7",
"T 	c #8B9FA9",
"U 	c #8DA0A6",
"V 	c #6C8A2F",
"W 	c #708C3F",
"X 	c #6E8B3F",
"Y 	c #708D40",
"Z 	c #6B892B",
"` 	c #92A4BC",
" .	c #8A9EA8",
"..	c #7FBAD8",
"+.	c #E4FCFF",
"@.	c #DFFBFF",
"#.	c #E0FBFF",
"$.	c #E0FCFF",
"%.	c #D8F3E9",
"&.	c #94B03D",
"*.	c #C1E367",
"=.	c #BFE266",
"-.	c #C1E467",
";.	c #C3E768",
">.	c #C3E667",
",.	c #C4E768",
"'.	c #C7EC6A",
").	c #778D2A",
"!.	c #EDFFFF",
"~.	c #E0F6FF",
"{.	c #D8F2FD",
"].	c #D9F2FD",
"^.	c #D9F3FF",
"/.	c #D3EBE5",
"(.	c #9DAE3C",
"_.	c #C8DE64",
":.	c #C9DF65",
"<.	c #AABC56",
"[.	c #91A149",
"}.	c #8F9F49",
"|.	c #9CAD4E",
"1.	c #79873E",
"2.	c #9BAD4F",
"3.	c #BACE5D",
"4.	c #818F2A",
"5.	c #E5FFFF",
"6.	c #D9F2FE",
"7.	c #E3F7FF",
"8.	c #DBF3FE",
"9.	c #DCF3FE",
"0.	c #DCF4FF",
"a.	c #D6EDE6",
"b.	c #ABB13E",
"c.	c #D6E165",
"d.	c #D6E065",
"e.	c #63682F",
"f.	c #4A4E24",
"g.	c #474B23",
"h.	c #8B9343",
"i.	c #3B3F1C",
"j.	c #494C22",
"k.	c #AAB350",
"l.	c #8F932C",
"m.	c #E6FFFF",
"n.	c #E7F9FF",
"o.	c #E1F6FF",
"p.	c #E2F7FF",
"q.	c #DBEFE7",
"r.	c #BAB641",
"s.	c #EAE86A",
"t.	c #E9E869",
"u.	c #F5F46F",
"v.	c #FAF971",
"w.	c #FAF871",
"x.	c #F4F26E",
"y.	c #F9F971",
"z.	c #F8F771",
"A.	c #98962D",
"B.	c #EAFFFF",
"C.	c #E2F6FF",
"D.	c #81BEDC",
"E.	c #BFCCD0",
"F.	c #B5C5CA",
"G.	c #B6C5CA",
"H.	c #B6C6CB",
"I.	c #B5C3C0",
"J.	c #B4A83C",
"K.	c #C5BC55",
"L.	c #C3BB55",
"M.	c #C4BB55",
"N.	c #C4BC56",
"O.	c #C5BE55",
"P.	c #C8C85D",
"Q.	c #E1A460",
"R.	c #DB8134",
"S.	c #AD5617",
"T.	c #D38F89",
"U.	c #F1DCD7",
"V.	c #79CBEC",
"W.	c #BEC6C8",
"X.	c #82BEDC",
"Y.	c #7FBBD9",
"Z.	c #E5F3F5",
"`.	c #DFEFF2",
" +	c #DFEFF3",
".+	c #E0F1F3",
"++	c #DAE6DD",
"@+	c #C7B241",
"#+	c #F4DD65",
"$+	c #F2DB64",
"%+	c #F2DC64",
"&+	c #F2DF6C",
"*+	c #E2BF76",
"=+	c #BE4A2A",
"-+	c #E28277",
";+	c #F1A89E",
">+	c #F3ACA3",
",+	c #EC9B8E",
"'+	c #DE5E4A",
")+	c #615469",
"!+	c #DAEDEE",
"~+	c #80BCDA",
"{+	c #7EBAD8",
"]+	c #EFFBFF",
"^+	c #E8F8FF",
"/+	c #E9F9FF",
"(+	c #E3EFE5",
"_+	c #CBA73B",
":+	c #FBD764",
"<+	c #FAD764",
"[+	c #F4D362",
"}+	c #EDD061",
"|+	c #E5C466",
"1+	c #C84E49",
"2+	c #F2A397",
"3+	c #F07D68",
"4+	c #E64327",
"5+	c #E43B1D",
"6+	c #E9573F",
"7+	c #F8A495",
"8+	c #DE6350",
"9+	c #D0847C",
"0+	c #7DBEDD",
"a+	c #F1FBFF",
"b+	c #EAF7FE",
"c+	c #EBF9FF",
"d+	c #E5EEE5",
"e+	c #C99B38",
"f+	c #FACA61",
"g+	c #FACB61",
"h+	c #7E6731",
"i+	c #4C3D1C",
"j+	c #9B5B49",
"k+	c #EA7D6D",
"l+	c #ED5D44",
"m+	c #E9482D",
"n+	c #EA4F35",
"o+	c #EA5037",
"p+	c #EA4D32",
"q+	c #EA492E",
"r+	c #F69582",
"s+	c #D66A5D",
"t+	c #6A8CA8",
"u+	c #F5FDFF",
"v+	c #EEF9FF",
"w+	c #E9EDE5",
"x+	c #C98F35",
"y+	c #FBBE5D",
"z+	c #FABD5D",
"A+	c #EEB659",
"B+	c #EEBF5E",
"C+	c #C83628",
"D+	c #F47F6B",
"E+	c #EB4124",
"F+	c #EA3D21",
"G+	c #EA3E20",
"H+	c #EC4B2F",
"I+	c #F29A8C",
"J+	c #5C5870",
"K+	c #7EBBD9",
"L+	c #F0F5F5",
"M+	c #EAF3F2",
"N+	c #EAF3F3",
"O+	c #EBF3F3",
"P+	c #E5E2DC",
"Q+	c #C58332",
"R+	c #F3AC57",
"S+	c #F1AB55",
"T+	c #F2AB56",
"U+	c #F5B35A",
"V+	c #C42E1E",
"W+	c #F75F46",
"X+	c #FEF4F2",
"Y+	c #F2624B",
"Z+	c #F47A66",
"`+	c #5B5970",
" @	c #80BDDC",
".@	c #CED0D0",
"+@	c #C4C9CA",
"@@	c #C6CACB",
"#@	c #C3C1BF",
"$@	c #B46C2A",
"%@	c #C88344",
"&@	c #C78143",
"*@	c #C78144",
"=@	c #C88747",
"-@	c #C52918",
";@	c #F96049",
">@	c #F8A194",
",@	c #F8A99D",
"'@	c #F8A89C",
")@	c #F9AFA4",
"!@	c #F4624C",
"~@	c #F46651",
"{@	c #5B5A71",
"]@	c #7DBAD8",
"^@	c #F9FEFF",
"/@	c #FAFFFF",
"(@	c #F3EBE5",
"_@	c #C86C2B",
":@	c #FC9A52",
"<@	c #FA9952",
"[@	c #FF9E55",
"}@	c #FFA658",
"|@	c #DB6A5F",
"1@	c #F25E48",
"2@	c #F8644E",
"3@	c #F6624C",
"4@	c #F6614C",
"5@	c #F6634C",
"6@	c #FA6A54",
"7@	c #E65B47",
"8@	c #5C6982",
"9@	c #7CBAD8",
"0@	c #F9FDFF",
"a@	c #F2E9E3",
"b@	c #C65F26",
"c@	c #F98A4D",
"d@	c #FA8B4E",
"e@	c #95532E",
"f@	c #5A311B",
"g@	c #60321E",
"h@	c #E44F3D",
"i@	c #FE705C",
"j@	c #FB6F5A",
"k@	c #F96E5A",
"l@	c #FA6E5A",
"m@	c #FD705C",
"n@	c #FA6D59",
"o@	c #C45244",
"p@	c #659FBD",
"q@	c #FDFFFF",
"r@	c #F1E5E0",
"s@	c #C13F0A",
"t@	c #F86B31",
"u@	c #F76B31",
"v@	c #B84A1E",
"w@	c #B0481D",
"x@	c #A84923",
"y@	c #BE4931",
"z@	c #DE4B36",
"A@	c #FA705D",
"B@	c #FF7B68",
"C@	c #FF7865",
"D@	c #EF614E",
"E@	c #C24D3E",
"F@	c #CDB2AE",
"G@	c #74B4D3",
"H@	c #86BFDB",
"I@	c #FFEFE6",
"J@	c #FFF4EB",
"K@	c #FFF6EB",
"L@	c #FFF6EC",
"M@	c #FFF4E9",
"N@	c #FFF1E8",
"O@	c #FFEDE8",
"P@	c #C84F3C",
"Q@	c #D13D28",
"R@	c #D03F2B",
"S@	c #D1412D",
"T@	c #C7786B",
"U@	c #D7C4BF",
"V@	c #FEF7F3",
"W@	c #85BEDA",
"X@	c #0C79AF",
"Y@	c #006EA9",
"Z@	c #006DA9",
"`@	c #006EAA",
" #	c #0070AB",
".#	c #0070AC",
"+#	c #007BB8",
"@#	c #007DB9",
"##	c #007CB8",
"$#	c #007AB7",
"%#	c #0075B1",
"&#	c #006FAA",
"  . + @ @ # $ % & & & * * * * * & = $ # @ + .   ",
"  - ; > > , ' ) ! ~ { ] ^ / ( _ : < [ , > ; -   ",
"  } | 1 2 3 4 5 6 7 8 9 0 a b c d e f g 1 | }   ",
"  } h i j k l m n o p q r s t u v w f x i h }   ",
"  y z A B C D E F G H I J K L J M N O C A z y   ",
"  P Q R S T U V W X X X X X X X Y Z `  .R Q P   ",
"  ..+.@.#.$.%.&.*.=.-.;.;.>.,.>.'.).!.$.@.+...  ",
"  ..~.{.].^./.(._.:.<.[.}.|.1.2.3.4.5.6.{.~...  ",
"  ..7.8.9.0.a.b.c.d.e.f.g.h.i.j.k.l.m.9.8.7...  ",
"  ..n.o.o.p.q.r.s.t.u.v.w.x.v.y.z.A.B.~.C.n...  ",
"  D.E.F.G.H.I.J.K.L.M.M.N.O.P.Q.R.S.T.U.V.W.X.  ",
"  Y.Z.`. +.+++@+#+$+%+%+&+*+=+-+;+>+,+'+)+!+~+  ",
"  {+]+^+^+/+(+_+:+<+[+}+|+1+2+3+4+5+6+7+8+9+0+  ",
"  {+a+b+b+c+d+e+f+g+h+i+j+k+l+m+n+o+p+q+r+s+t+  ",
"  {+u+v+v+]+w+x+y+z+A+B+C+D+E+F+G+G+G+F+H+I+J+  ",
"  K+L+M+N+O+P+Q+R+S+T+U+V+W+X+[ [ [ [ [ Y+Z+`+  ",
"   @.@+@+@@@#@$@%@&@*@=@-@;@>@,@'@'@'@)@!@~@{@  ",
"  ]@[ ^@^@/@(@_@:@<@[@}@|@1@2@3@4@4@3@5@6@7@8@  ",
"  9@[ 0@0@/@a@b@c@d@e@f@g@h@i@j@k@k@l@m@n@o@p@  ",
"  ]@[ q@q@q@r@s@t@u@v@w@x@y@z@A@B@B@C@D@E@F@G@  ",
"  H@[ [ [ [ [ I@J@J@K@L@M@N@O@P@Q@R@S@T@U@V@W@  ",
"  X@Y@Z@Z@Z@`@ #.#.#.#.#.#.#.#+#@###$#%#.#&#X@  ",
"                                                ",
"                                                "};
